<svg id="Capa_2" data-name="Capa 2" xmlns="http://www.w3.org/2000/svg" viewBox="0 0 26.55 32.25"><defs><style>.cls-1,.cls-2,.cls-5,.cls-6{fill:#fff;}.cls-1,.cls-4,.cls-6{stroke:#211915;stroke-miterlimit:10;stroke-width:0.25px;}.cls-3{fill:#211915;}.cls-4{fill:none;}.cls-5,.cls-6{fill-rule:evenodd;}</style></defs><title>dead human</title><path class="cls-1" d="M13.44,13.64c-2.08-1.3-.9-2.59,2.14-2.24" transform="translate(-2.72 0.12)"/><path class="cls-1" d="M17.83,13.64c2.08-1.3.9-2.59-2.14-2.24" transform="translate(-2.72 0.12)"/><path class="cls-1" d="M13.49,15c-2.08-1.3-.9-2.59,2.14-2.24" transform="translate(-2.72 0.12)"/><path class="cls-1" d="M17.88,15c2.08-1.3.9-2.59-2.14-2.24" transform="translate(-2.72 0.12)"/><path class="cls-1" d="M13.49,16.09c-2.08-1.29-.9-2.59,2.14-2.23" transform="translate(-2.72 0.12)"/><path class="cls-1" d="M17.88,16.09c2.08-1.29.9-2.59-2.14-2.23" transform="translate(-2.72 0.12)"/><path class="cls-1" d="M13.49,17.24c-2.08-1.29-.9-2.59,2.14-2.24" transform="translate(-2.72 0.12)"/><path class="cls-1" d="M17.88,17.24C20,16,18.78,14.65,15.74,15" transform="translate(-2.72 0.12)"/><path class="cls-1" d="M19.14,4.78c0,.7-1,1.53-1.42,2.07-.64.91-.91,1.34-2.14,1.34s-1.49-.27-2.09-1.34C13.22,6.37,12,5.36,12,4.78a3.56,3.56,0,0,1,7.12,0Z" transform="translate(-2.72 0.12)"/><path class="cls-2" d="M13.92,4.36a.68.68,0,1,1,.67-.67A.67.67,0,0,1,13.92,4.36Z" transform="translate(-2.72 0.12)"/><path class="cls-3" d="M13.92,3.14a.55.55,0,1,1-.55.55.55.55,0,0,1,.55-.55m0-.25a.8.8,0,1,0,.8.8.8.8,0,0,0-.8-.8Z" transform="translate(-2.72 0.12)"/><path class="cls-2" d="M17.11,4.36a.68.68,0,0,1,0-1.35.68.68,0,1,1,0,1.35Z" transform="translate(-2.72 0.12)"/><path class="cls-3" d="M17.11,3.14a.55.55,0,1,1-.55.55.55.55,0,0,1,.55-.55m0-.25a.8.8,0,1,0,.8.8.8.8,0,0,0-.8-.8Z" transform="translate(-2.72 0.12)"/><line class="cls-4" x1="12.05" y1="6.53" x2="12.05" y2="7.8"/><line class="cls-2" x1="12.05" y1="6.53" x2="12.05" y2="7.8"/><line class="cls-4" x1="12.79" y1="6.53" x2="12.79" y2="7.8"/><line class="cls-2" x1="12.79" y1="6.53" x2="12.79" y2="7.8"/><line class="cls-4" x1="13.58" y1="6.53" x2="13.58" y2="7.8"/><line class="cls-2" x1="13.58" y1="6.53" x2="13.58" y2="7.8"/><polygon class="cls-5" points="12.08 5.69 12.79 4.46 13.5 5.69 12.08 5.69"/><path class="cls-3" d="M15.52,4.58l.49.86H15l.5-.86m0-.5-.93,1.61h1.86l-.93-1.61Z" transform="translate(-2.72 0.12)"/><path class="cls-6" d="M15.56,20.15c-.23,0-.52-.67-.6-1a28,28,0,0,1,0-8.71c.07-.43.3-1.56.6-1.55s.47,1,.54,1.43a30.18,30.18,0,0,1,0,8.75C16,19.4,15.79,20.14,15.56,20.15Z" transform="translate(-2.72 0.12)"/><path class="cls-1" d="M19.48,10.35c-.35-.66,1.66-1.12,2.33-1.44s2.53-1.73,2.83-1-1.8,1.21-2.46,1.53S19.82,11,19.48,10.35Z" transform="translate(-2.72 0.12)"/><path class="cls-1" d="M26,6.82C25,6.43,26.82,4,27.25,3.07S28.09-.19,28.93.21,28.32,2.57,28,3.34C27.62,4.35,27,7.22,26,6.82Z" transform="translate(-2.72 0.12)"/><path class="cls-1" d="M12.52,10.19c.35-.66-1.66-1.12-2.33-1.45S7.66,7,7.36,7.7s1.8,1.21,2.46,1.53S12.18,10.83,12.52,10.19Z" transform="translate(-2.72 0.12)"/><path class="cls-1" d="M6,6.65C7,6.27,5.18,3.83,4.75,2.9S3.91-.35,3.07,0,3.68,2.41,4,3.18C4.38,4.19,5,7.06,6,6.65Z" transform="translate(-2.72 0.12)"/><path class="cls-1" d="M17.13,19.09c.63-.89,2.2,2.88,2.92,3.65s2.89,2.8,2.07,3.73S20,24.07,19.42,23,16.47,20,17.13,19.09Z" transform="translate(-2.72 0.12)"/><path class="cls-1" d="M22.33,27.11c1-.16.77,1.48.91,2.21s1.13,2.61.23,2.68-1-1.81-1.14-2.45S21.41,27.25,22.33,27.11Z" transform="translate(-2.72 0.12)"/><path class="cls-1" d="M13.84,19.09c-.63-.89-2.2,2.88-2.92,3.65S8,25.54,8.85,26.47,11,24.07,11.55,23,14.51,20,13.84,19.09Z" transform="translate(-2.72 0.12)"/><path class="cls-1" d="M8.65,27.11c-1-.16-.78,1.48-.92,2.21S6.6,31.93,7.5,32s1-1.81,1.14-2.45S9.56,27.25,8.65,27.11Z" transform="translate(-2.72 0.12)"/></svg>