<?xml version="1.0" encoding="utf-8"?>
<!-- Generator: Adobe Illustrator 13.0.0, SVG Export Plug-In . SVG Version: 6.00 Build 14948)  -->
<!DOCTYPE svg PUBLIC "-//W3C//DTD SVG 1.1//EN" "http://www.w3.org/Graphics/SVG/1.1/DTD/svg11.dtd">
<svg version="1.1" id="Layer_1" xmlns="http://www.w3.org/2000/svg" xmlns:xlink="http://www.w3.org/1999/xlink" x="0px" y="0px"
	 width="178px" height="89px" viewBox="0 0 178 89" enable-background="new 0 0 178 89" xml:space="preserve">
<g display="none">
	<polygon display="inline" fill="#FFFFFF" points="88.749,88.75 0.25,88.75 0.25,0.25 88.749,0.25 88.749,88.75 	"/>
	<path display="inline" d="M89,0v89H0V0H89 M88.5,0.5h-88v88h88V0.5L88.5,0.5z"/>
</g>
<g>
	<rect x="6.667" y="6" fill="#FFE8E8" width="76.5" height="76.5"/>
	<rect x="6.667" y="6.167" fill="#8C6239" width="6" height="38.833"/>
	<rect x="77.167" y="6" fill="#8C6239" width="6" height="38.833"/>
	<rect x="6.751" y="6.083" fill="#8C6239" width="76.333" height="14.333"/>
	<g>
		<g>
			<rect x="22" y="29" fill="#FFFFFF" stroke="#000000" stroke-width="0.5" width="17.333" height="17"/>
			<rect x="28.5" y="35.666" stroke="#FFFFFF" stroke-width="0.5" width="4.167" height="4"/>
		</g>
		<g>
			<rect x="50.666" y="29" fill="#FFFFFF" stroke="#000000" stroke-width="0.5" width="17.334" height="17"/>
			<rect x="57.166" y="35.666" stroke="#FFFFFF" stroke-width="0.5" width="4.167" height="4"/>
		</g>
	</g>
	<line fill="none" stroke="#000000" stroke-width="0.5" x1="33" y1="68" x2="57" y2="68"/>
	<rect x="33.167" y="82.5" fill="#FFE8E8" width="25.333" height="6"/>
</g>
<g>
	<rect x="95.668" y="6" fill="#FFE8E8" width="76.5" height="76.5"/>
	<rect x="95.668" y="6.167" fill="#8C6239" width="6" height="38.833"/>
	<rect x="166.168" y="6" fill="#8C6239" width="6" height="38.833"/>
	<rect x="95.752" y="6.083" fill="#8C6239" width="76.332" height="14.333"/>
	<g>
		<g>
			<rect x="111" y="29" fill="#FFFFFF" stroke="#000000" stroke-width="0.5" width="17.334" height="17"/>
			<rect x="117.5" y="35.666" stroke="#FFFFFF" stroke-width="0.5" width="4.167" height="4"/>
		</g>
		<g>
			<rect x="139.666" y="29" fill="#FFFFFF" stroke="#000000" stroke-width="0.5" width="17.334" height="17"/>
			<rect x="146.166" y="35.666" stroke="#FFFFFF" stroke-width="0.5" width="4.168" height="4"/>
		</g>
	</g>
	<rect x="122.168" y="82.5" fill="#FFE8E8" width="25.333" height="6"/>
	<g>
		<path d="M146.834,64v8.334h-23.667V64H146.834 M146.334,64.5h-22.667v7.334h22.667V64.5L146.334,64.5z"/>
	</g>
</g>
<g display="none">
	<polygon display="inline" fill="#FFFFFF" points="177.751,88.751 89.25,88.751 89.25,0.25 177.751,0.25 177.751,88.751 	"/>
	<path display="inline" d="M178,0v89H89.001V0H178 M177.5,0.5H89.501v88H177.5V0.5L177.5,0.5z"/>
</g>
</svg>
