<?xml version="1.0" encoding="utf-8"?>
<!-- Generator: Adobe Illustrator 23.0.5, SVG Export Plug-In . SVG Version: 6.00 Build 0)  -->
<svg version="1.1" xmlns="http://www.w3.org/2000/svg" xmlns:xlink="http://www.w3.org/1999/xlink" x="0px" y="0px"
	 viewBox="0 0 1422 870" style="enable-background:new 0 0 1422 870;" xml:space="preserve">
<style type="text/css">
	.st0{display:none;}
	.st1{display:inline;}
	.st2{fill:#ABABAB;}
	.st3{font-family:'Verdana';}
	.st4{font-size:8.3957px;}
	.st5{font-size:8.4px;}
	.st6{display:inline;fill:#F8FFAD;}
	.st7{display:inline;fill:#026B00;}
	.st8{display:inline;fill:#9C0091;}
	.st9{display:inline;fill:#EBC34E;}
	.st10{display:inline;fill:#96C0A1;}
	.st11{display:inline;fill:#A8E3FF;}
	.st12{fill:#B2B2B2;}
	.st13{stroke:#000000;stroke-width:0.6002;}
	.st14{fill:none;stroke:#000000;}
	.st15{fill:none;stroke:#000000;stroke-linejoin:bevel;}
	.st16{enable-background:new    ;}
</style>
<g id="Capa_1">
	<g>
		
			<image style="overflow:visible;enable-background:new    ;" width="1423" height="870" xlink:href="../../../../fondo.png"  transform="matrix(1 0 0 1 0 -6.728313e-06)">
		</image>
	</g>
	<g class="st0">
		<g class="st1">
			<g>
				
					<ellipse transform="matrix(3.327793e-02 -0.9994 0.9994 3.327793e-02 -759.6343 826.6517)" class="st2" cx="47.5" cy="806" rx="32.3" ry="32.3"/>
			</g>
			<g>
				<circle class="st2" cx="53.5" cy="705.8" r="32.9"/>
			</g>
			<g>
				
					<ellipse transform="matrix(0.9985 -5.530039e-02 5.530039e-02 0.9985 -33.4743 3.0902)" class="st2" cx="39.1" cy="606.4" rx="30.7" ry="30.7"/>
			</g>
			<g>
				
					<ellipse transform="matrix(3.327795e-02 -0.9994 0.9994 3.327795e-02 -677.7529 911.3047)" class="st2" cx="132.2" cy="806" rx="28.4" ry="28.4"/>
			</g>
			<g>
				<circle class="st2" cx="128.6" cy="705.8" r="31.2"/>
			</g>
			<g>
				<circle class="st2" cx="175.4" cy="606.4" r="32.1"/>
			</g>
			<g>
				<circle class="st2" cx="208.4" cy="806" r="33.2"/>
			</g>
			<g>
				<circle class="st2" cx="208.4" cy="705.8" r="25.6"/>
			</g>
			<g>
				<circle class="st2" cx="271.4" cy="705.8" r="26.8"/>
			</g>
			<g>
				<circle class="st2" cx="106.4" cy="606.4" r="25.9"/>
			</g>
			<g>
				<circle class="st2" cx="175.4" cy="508.5" r="23.6"/>
			</g>
			<g>
				<circle class="st2" cx="77" cy="508.5" r="25.9"/>
			</g>
		</g>
		<g class="st1">
			<g>
				
					<ellipse transform="matrix(0.9239 -0.3827 0.3827 0.9239 -268.1901 256.1176)" class="st2" cx="509.7" cy="802.2" rx="35.1" ry="35.1"/>
			</g>
			<g>
				<ellipse class="st2" cx="509.8" cy="704.3" rx="36.7" ry="36.7"/>
			</g>
			<g>
				<circle class="st2" cx="239" cy="606.5" r="22.2"/>
			</g>
			<g>
				<circle class="st2" cx="300.8" cy="606.5" r="29.1"/>
			</g>
			<g>
				<circle class="st2" cx="369.2" cy="606.5" r="28.5"/>
			</g>
			<g>
				<circle class="st2" cx="438.9" cy="606.5" r="30.2"/>
			</g>
			<g>
				<circle class="st2" cx="509.7" cy="606.5" r="30.2"/>
			</g>
			<g>
				<circle class="st2" cx="589.5" cy="606.5" r="38.9"/>
			</g>
			<g>
				<circle class="st2" cx="673.5" cy="606.5" r="34.2"/>
			</g>
			<g>
				<circle class="st2" cx="747.9" cy="606.5" r="29.3"/>
			</g>
			<g>
				<circle class="st2" cx="818.2" cy="606.5" r="30.3"/>
			</g>
			<g>
				<circle class="st2" cx="438.9" cy="511.1" r="31"/>
			</g>
			<g>
				<circle class="st2" cx="589.5" cy="511.1" r="22.4"/>
			</g>
			<g>
				<circle class="st2" cx="751" cy="511.1" r="24.7"/>
			</g>
			<g>
				<circle class="st2" cx="817.6" cy="511.1" r="31"/>
			</g>
			<g>
				<circle class="st2" cx="751" cy="420.9" r="32.3"/>
			</g>
		</g>
		<g class="st1">
			<g>
				<circle class="st2" cx="1095.4" cy="812" r="24.7"/>
			</g>
			<g>
				<circle class="st2" cx="1059.4" cy="711.8" r="31.9"/>
			</g>
			<g>
				<circle class="st2" cx="1132.1" cy="711.8" r="30"/>
			</g>
			<g>
				<ellipse class="st2" cx="1061.7" cy="607.4" rx="33.9" ry="33.9"/>
			</g>
			<g>
				<circle class="st2" cx="1060.6" cy="514.5" r="27.5"/>
			</g>
			<g>
				<circle class="st2" cx="1060.6" cy="416.6" r="29.4"/>
			</g>
			<g>
				<circle class="st2" cx="1130.3" cy="416.6" r="29.4"/>
			</g>
			<g>
				<circle class="st2" cx="1130.3" cy="514.5" r="31.6"/>
			</g>
		</g>
		<g class="st1">
			<g>
				<circle class="st2" cx="945.4" cy="806" r="39.6"/>
			</g>
			<g>
				<circle class="st2" cx="945.4" cy="705.8" r="38.9"/>
			</g>
			<g>
				<circle class="st2" cx="945.4" cy="606.4" r="31"/>
			</g>
			<g>
				<circle class="st2" cx="913" cy="508.5" r="34.8"/>
			</g>
			<g>
				<circle class="st2" cx="985" cy="508.5" r="26.2"/>
			</g>
			<g>
				<circle class="st2" cx="913" cy="410.6" r="35.1"/>
			</g>
			<g>
				
					<ellipse transform="matrix(0.1602 -0.9871 0.9871 0.1602 520.6256 1242.322)" class="st2" cx="990.4" cy="315.2" rx="34.8" ry="34.8"/>
			</g>
			<g>
				<circle class="st2" cx="1063.6" cy="315.2" r="27.4"/>
			</g>
			<g>
				<circle class="st2" cx="990.4" cy="225" r="30.7"/>
			</g>
		</g>
		<g class="st1">
			<g>
				<circle class="st2" cx="1287.5" cy="816.2" r="22.1"/>
			</g>
			<g>
				<circle class="st2" cx="1287.5" cy="716" r="27.7"/>
			</g>
			<g>
				<circle class="st2" cx="1217.9" cy="716" r="24.7"/>
			</g>
			<g>
				<circle class="st2" cx="1357.1" cy="716" r="28"/>
			</g>
			<g>
				<circle class="st2" cx="1358.9" cy="616.6" r="30"/>
			</g>
			<g>
				<circle class="st2" cx="1285.7" cy="616.6" r="32.3"/>
			</g>
			<g>
				<circle class="st2" cx="1209.5" cy="616.6" r="32.9"/>
			</g>
			<g>
				<circle class="st2" cx="1224.5" cy="518.7" r="35.8"/>
			</g>
			<g>
				<circle class="st2" cx="1301.9" cy="518.7" r="31"/>
			</g>
			<g>
				<circle class="st2" cx="1381.1" cy="518.7" r="37.3"/>
			</g>
			<g>
				<circle class="st2" cx="1295.3" cy="420.8" r="32.9"/>
			</g>
		</g>
		<g class="st1">
			<g>
				<circle class="st2" cx="902.2" cy="315.2" r="34.2"/>
			</g>
			<g>
				<circle class="st2" cx="902.2" cy="225" r="33.8"/>
			</g>
			<g>
				<circle class="st2" cx="902.2" cy="130.6" r="38.9"/>
			</g>
			<g>
				<circle class="st2" cx="902.2" cy="39.4" r="30.7"/>
			</g>
		</g>
		<g id="Textos_1_" class="st1">
			<text transform="matrix(1 0 0 1 111.0851 860.7132)" class="st3 st4">Combate</text>
			<text transform="matrix(1 0 0 1 496.9988 860.7142)" class="st3 st4">Magia</text>
			<text transform="matrix(1 0 0 1 1078.2101 860.7142)" class="st3 st4">Dominio</text>
			<text transform="matrix(1 0 0 1 934.826 860.7132)" class="st3 st4">Zeon</text>
			<text transform="matrix(1 0 0 1 1270.5841 860.7132)" class="st3 st4">Crafting</text>
			<text transform="matrix(1 0 0 1 34.2372 804.0403)" class="st3 st4">Golpe</text>
			<text transform="matrix(1 0 0 1 23.3939 813.9378)" class="st3 st4">Potenciado</text>
			<g>
				<text transform="matrix(1 0 0 1 29.5587 703.9212)" class="st3 st4">Cazador de</text>
				<text transform="matrix(1 0 0 1 31.5182 713.8226)" class="st3 st4">Monstruos</text>
			</g>
			<g>
				<text transform="matrix(1 0 0 1 25.4213 604.4407)" class="st3 st4">Golpe</text>
				<text transform="matrix(1 0 0 1 15.5209 614.3411)" class="st3 st4">Perforante</text>
			</g>
			<g>
				<text transform="matrix(1 0 0 1 115.4271 804.0403)" class="st3 st4">Esquiva</text>
				<text transform="matrix(1 0 0 1 111.8139 813.9378)" class="st3 st4">Instintiva</text>
			</g>
			<text transform="matrix(1 0 0 1 102.7487 708.8763)" class="st3 st4">Anticipación</text>
			<text transform="matrix(1 0 0 1 147.6427 609.3919)" class="st3 st4">Contraataque</text>
			<g>
				<text transform="matrix(1 0 0 1 190.3471 804.0403)" class="st3 st4">Aguante</text>
				<text transform="matrix(1 0 0 1 184.2943 813.9378)" class="st3 st4">Prolongado</text>
			</g>
			<text transform="matrix(1 0 0 1 191.4647 703.9212)" class="st3 st4">Guardia</text>
			<text transform="matrix(1 0 0 1 190.8148 713.8226)" class="st3 st4">Perfecta</text>
			<text transform="matrix(1 0 0 1 253.5231 703.9212)" class="st3 st4">Segundo</text>
			<text transform="matrix(1 0 0 1 257.4523 713.8226)" class="st3 st4">Aliento</text>
			<g>
				<text transform="matrix(1 0 0 1 88.1074 604.4407)" class="st3 st4">Ejecutar</text>
				<text transform="matrix(1 0 0 1 90.4558 614.3411)" class="st3 st4">Bestias</text>
			</g>
			<text transform="matrix(1 0 0 1 155.8624 511.5003)" class="st3 st4">Desarme</text>
			<g>
				<text transform="matrix(1 0 0 1 59.5611 506.5511)" class="st3 st4">Maestro</text>
				<text transform="matrix(1 0 0 1 59.2434 516.4515)" class="st3 st4">Duelista</text>
			</g>
			<text transform="matrix(1 0 0 1 483.5107 800.3226)" class="st3 st4">Sensibilidad</text>
			<text transform="matrix(1 0 0 1 492.3144 810.222)" class="st3 st4">al Mana</text>
			<text transform="matrix(1 0 0 1 483.1429 702.43)" class="st3 st4">Canalización</text>
			<text transform="matrix(1 0 0 1 495.9004 712.3323)" class="st3 st4">Básica</text>
			<text transform="matrix(1 0 0 1 221.4967 609.4974)" class="st3 st4">Ignición</text>
			<text transform="matrix(1 0 0 1 276.9113 609.4974)" class="st3 st4">Criomancia</text>
			<text transform="matrix(1 0 0 1 346.1623 609.4974)" class="st3 st4">Geomancia</text>
			<text transform="matrix(1 0 0 1 414.7336 609.4974)" class="st3 st4">Electrofonia</text>
			<text transform="matrix(1 0 0 1 485.422 609.4974)" class="st3 st4">Aeromancia</text>
			<g>
				<text transform="matrix(1 0 0 1 561.743 604.5472)" class="st3 st4">Manipulación</text>
				<text transform="matrix(1 0 0 1 570.077 614.4485)" class="st3 st4">del Vacio</text>
			</g>
			<text transform="matrix(1 0 0 1 643.7584 609.4974)" class="st3 st4">Umbramancia</text>
			<text transform="matrix(1 0 0 1 724.0631 609.4974)" class="st3 st4">Fotomancia</text>
			<text transform="matrix(1 0 0 1 802.9882 604.5472)" class="st3 st4">Sintesis</text>
			<text transform="matrix(1 0 0 1 798.4725 614.4485)" class="st3 st4">Elemental</text>
			<text transform="matrix(1 0 0 1 417.0255 509.2044)" class="st3 st4">Alteracion</text>
			<text transform="matrix(1 0 0 1 418.7043 519.1038)" class="st3 st4">Climatica</text>
			<g>
				<text transform="matrix(1 0 0 1 578.0591 509.2044)" class="st3 st4">Portal</text>
				<text transform="matrix(1 0 0 1 577.2039 519.1038)" class="st3 st4">Menor</text>
			</g>
			<text transform="matrix(1 0 0 1 731.5079 514.1497)" class="st3 st4">Ritualista</text>
			<g>
				<text transform="matrix(1 0 0 1 796.735 509.2044)" class="st3 st4">Alteración</text>
				<text transform="matrix(1 0 0 1 798.4137 519.1038)" class="st3 st4">Climática</text>
			</g>
			<g>
				<text transform="matrix(1 0 0 1 878.0812 313.3177)" class="st3 st4">Hibridación</text>
				<text transform="matrix(1 0 0 1 885.0114 323.218)" class="st3 st4">Forzada</text>
			</g>
			<g>
				<text transform="matrix(1 0 0 1 729.5516 418.9495)" class="st3 st4">Invocación</text>
				<text transform="matrix(1 0 0 1 739.2069 428.8538)" class="st3 st4">Menor</text>
			</g>
			<text transform="matrix(1 0 0 1 1075.5558 814.9925)" class="st3 st4">Presencia</text>
			<text transform="matrix(1 0 0 1 1043.5065 709.9241)" class="st3 st4">Lectura</text>
			<text transform="matrix(1 0 0 1 1037.6525 719.8284)" class="st3 st4">Emocional</text>
			<text transform="matrix(1 0 0 1 1114.6383 709.9241)" class="st3 st4">Aura de</text>
			<text transform="matrix(1 0 0 1 1110.7828 719.8284)" class="st3 st4">Liderazgo</text>
			<text transform="matrix(1 0 0 1 1034.4764 607.3575)" class="st3 st4">Manipulación</text>
			<text transform="matrix(1 0 0 1 1044.8295 617.2618)" class="st3 st4">Psíquica</text>
			<g>
				<text transform="matrix(1 0 0 1 1043.0764 512.5491)" class="st3 st4">Dominio</text>
				<text transform="matrix(1 0 0 1 1046.4277 522.4485)" class="st3 st4">Mental</text>
			</g>
			<g>
				<text transform="matrix(1 0 0 1 1040.3158 414.6614)" class="st3 st4">Subyugar</text>
				<text transform="matrix(1 0 0 1 1039.9872 424.5608)" class="st3 st4">Entidades</text>
			</g>
			<g>
				<text transform="matrix(1 0 0 1 1110.7155 414.6614)" class="st3 st4">Comando</text>
				<text transform="matrix(1 0 0 1 1112.3878 424.5608)" class="st3 st4">Absoluto</text>
			</g>
			<g>
				<text transform="matrix(1 0 0 1 1109.3307 512.5491)" class="st3 st4">Juramento</text>
				<text transform="matrix(1 0 0 1 1109.6447 522.4485)" class="st3 st4">Vinculante</text>
			</g>
			<g>
				<text transform="matrix(1 0 0 1 916.5012 804.0403)" class="st3 st4">Conocimiento</text>
				<text transform="matrix(1 0 0 1 929.2998 813.9378)" class="st3 st4">Técnico</text>
			</g>
			<g>
				<text transform="matrix(1 0 0 1 918.2972 703.9212)" class="st3 st4">Manipulación</text>
				<text transform="matrix(1 0 0 1 935.0726 713.8226)" class="st3 st4">Zeon</text>
			</g>
			<g>
				<text transform="matrix(1 0 0 1 924.402 604.4407)" class="st3 st4">Tolerancia</text>
				<text transform="matrix(1 0 0 1 929.5919 614.3411)" class="st3 st4">al Vacío</text>
			</g>
			<g>
				<text transform="matrix(1 0 0 1 887.1713 506.5511)" class="st3 st4">Armamento</text>
				<text transform="matrix(1 0 0 1 901.2982 516.4515)" class="st3 st4">Zeon</text>
			</g>
			<g>
				<text transform="matrix(1 0 0 1 967.8925 506.5511)" class="st3 st4">Blindaje</text>
				<text transform="matrix(1 0 0 1 974.2328 516.4515)" class="st3 st4">Zeon</text>
			</g>
			<g>
				<text transform="matrix(1 0 0 1 889.204 408.6614)" class="st3 st4">Reactor de</text>
				<text transform="matrix(1 0 0 1 886.9037 418.5657)" class="st3 st4">Compresión</text>
			</g>
			<g>
				<text transform="matrix(1 0 0 1 969.1801 313.3177)" class="st3 st4">Supresión</text>
				<text transform="matrix(1 0 0 1 966.7001 323.218)" class="st3 st4">Mana Local</text>
			</g>
			<text transform="matrix(1 0 0 1 1040.9762 318.2679)" class="st3 st4">Autómatas</text>
			<text transform="matrix(1 0 0 1 969.9169 223.0628)" class="st3 st4">Anulación</text>
			<text transform="matrix(1 0 0 1 972.2513 232.9661)" class="st3 st4">Regional</text>
			<g>
				<text transform="matrix(1 0 0 1 1276.9857 814.2376)" class="st3 st4">Forja</text>
				<text transform="matrix(1 0 0 1 1274.2577 824.1439)" class="st3 st4">Básica</text>
			</g>
			<text transform="matrix(1 0 0 1 1265.2794 719.0755)" class="st3 st4">Metalurgia</text>
			<text transform="matrix(1 0 0 1 1199.048 719.0755)" class="st3 st4">Alquimia</text>
			<text transform="matrix(1 0 0 1 1334.1759 719.0755)" class="st3 st4">Carpintería</text>
			<g>
				<text transform="matrix(1 0 0 1 1337.1295 614.6351)" class="st3 st4">Ingeniería</text>
				<text transform="matrix(1 0 0 1 1349.5719 624.5452)" class="st3 st4">Civil</text>
			</g>
			<g>
				<text transform="matrix(1 0 0 1 1263.3385 614.6351)" class="st3 st4">Metalurgia</text>
				<text transform="matrix(1 0 0 1 1274.86 624.5452)" class="st3 st4">Zeon</text>
			</g>
			<g>
				<text transform="matrix(1 0 0 1 1185.9611 614.6351)" class="st3 st4">Destilación</text>
				<text transform="matrix(1 0 0 1 1188.5109 624.5452)" class="st3 st4">Avanzada</text>
			</g>
			<g>
				<text transform="matrix(1 0 0 1 1198.2299 516.7503)" class="st3 st4">Arquitectura</text>
				<text transform="matrix(1 0 0 1 1211.3016 526.6566)" class="st3 st4">Militar</text>
			</g>
			<g>
				<text transform="matrix(1 0 0 1 1280.4486 516.7503)" class="st3 st4">Ingeniería</text>
				<text transform="matrix(1 0 0 1 1280.8583 526.6566)" class="st3 st4">Hidráulica</text>
			</g>
			<g>
				<text transform="matrix(1 0 0 1 1355.2731 516.7503)" class="st3 st4">Construcción</text>
				<text transform="matrix(1 0 0 1 1356.4615 526.6566)" class="st3 st4">Monumental</text>
			</g>
			<g>
				<text transform="matrix(1 0 0 1 1273.0482 418.8655)" class="st3 st4">Producción</text>
				<text transform="matrix(1 0 0 1 1275.7684 428.762)" class="st3 st4">Industrial</text>
			</g>
			<g>
				<text transform="matrix(1 0 0 1 883.9336 223.0628)" class="st3 st4">Catálisis</text>
				<text transform="matrix(1 0 0 1 877.6672 232.9661)" class="st3 st4">Mana-Zeon</text>
			</g>
			<g>
				<text transform="matrix(1 0 0 1 874.0818 128.6809)" class="st3 st4">Biotecnología</text>
				<text transform="matrix(1 0 0 1 887.647 138.5833)" class="st3 st4">Arcana</text>
			</g>
			<g>
				<text transform="matrix(1 0 0 1 881.0291 37.4724)" class="st3 st4">Ascensión</text>
				<text transform="matrix(1 0 0 1 884.8662 47.3714)" class="st3 st4">Artificial</text>
			</g>
			<text transform="matrix(1 0 0 1 885.5377 363.1318)" class="st3 st5">Híbrido</text>
		</g>
	</g>
	<g class="st0">
		<ellipse class="st6" cx="1095.4" cy="812" rx="24.7" ry="24.7"/>
		<ellipse class="st6" cx="1059.4" cy="711.8" rx="31.9" ry="31.9"/>
		<ellipse class="st6" cx="1132.1" cy="711.8" rx="30" ry="30"/>
		<ellipse class="st6" cx="1061.7" cy="607.4" rx="33.9" ry="33.9"/>
		<ellipse class="st6" cx="1060.6" cy="514.5" rx="27.5" ry="27.5"/>
		<ellipse class="st6" cx="1060.6" cy="416.6" rx="29.4" ry="29.4"/>
		<ellipse class="st6" cx="1130.3" cy="416.6" rx="29.4" ry="29.4"/>
		<ellipse class="st6" cx="1130.3" cy="514.5" rx="31.6" ry="31.6"/>
	</g>
	<g class="st0">
		<ellipse class="st7" cx="945.4" cy="806" rx="39.6" ry="39.6"/>
		<ellipse class="st7" cx="945.4" cy="705.8" rx="38.9" ry="38.9"/>
		<ellipse class="st7" cx="945.4" cy="606.4" rx="31" ry="31"/>
		<ellipse class="st7" cx="913" cy="508.5" rx="34.8" ry="34.8"/>
		<ellipse class="st7" cx="985" cy="508.5" rx="26.2" ry="26.2"/>
		<ellipse class="st7" cx="913" cy="410.6" rx="35.1" ry="35.1"/>
		
			<ellipse transform="matrix(0.1602 -0.9871 0.9871 0.1602 520.6256 1242.322)" class="st7" cx="990.4" cy="315.2" rx="34.8" ry="34.8"/>
		<ellipse class="st7" cx="1063.6" cy="315.2" rx="27.4" ry="27.4"/>
		<ellipse class="st7" cx="990.4" cy="225" rx="30.7" ry="30.7"/>
	</g>
	<g class="st0">
		<ellipse class="st8" cx="902.2" cy="315.2" rx="34.2" ry="34.2"/>
		<ellipse class="st8" cx="902.2" cy="225" rx="33.8" ry="33.8"/>
		<ellipse class="st8" cx="902.2" cy="130.6" rx="38.9" ry="38.9"/>
		<ellipse class="st8" cx="902.2" cy="39.4" rx="30.7" ry="30.7"/>
	</g>
	<g class="st0">
		
			<ellipse transform="matrix(0.9239 -0.3827 0.3827 0.9239 -268.1901 256.1176)" class="st9" cx="509.7" cy="802.2" rx="35.1" ry="35.1"/>
		<ellipse class="st9" cx="509.8" cy="704.3" rx="36.7" ry="36.7"/>
		<ellipse class="st9" cx="239" cy="606.5" rx="22.2" ry="22.2"/>
		<ellipse class="st9" cx="300.8" cy="606.5" rx="29.1" ry="29.1"/>
		<ellipse class="st9" cx="369.2" cy="606.5" rx="28.5" ry="28.5"/>
		<ellipse class="st9" cx="438.9" cy="606.5" rx="30.2" ry="30.2"/>
		<ellipse class="st9" cx="509.7" cy="606.5" rx="30.2" ry="30.2"/>
		<ellipse class="st9" cx="589.5" cy="606.5" rx="38.9" ry="38.9"/>
		<ellipse class="st9" cx="673.5" cy="606.5" rx="34.2" ry="34.2"/>
		<ellipse class="st9" cx="747.9" cy="606.5" rx="29.3" ry="29.3"/>
		<ellipse class="st9" cx="818.2" cy="606.5" rx="30.3" ry="30.3"/>
		<ellipse class="st9" cx="438.9" cy="511.1" rx="31" ry="31"/>
		<ellipse class="st9" cx="589.5" cy="511.1" rx="22.4" ry="22.4"/>
		<ellipse class="st9" cx="751" cy="511.1" rx="24.7" ry="24.7"/>
		<ellipse class="st9" cx="817.6" cy="511.1" rx="31" ry="31"/>
		<ellipse class="st9" cx="751" cy="420.9" rx="32.3" ry="32.3"/>
	</g>
	<g class="st0">
		
			<ellipse transform="matrix(3.327793e-02 -0.9994 0.9994 3.327793e-02 -759.6343 826.6517)" class="st10" cx="47.5" cy="806" rx="32.3" ry="32.3"/>
		<ellipse class="st10" cx="53.5" cy="705.8" rx="32.9" ry="32.9"/>
		
			<ellipse transform="matrix(0.9985 -5.530039e-02 5.530039e-02 0.9985 -33.4743 3.0902)" class="st10" cx="39.1" cy="606.4" rx="30.7" ry="30.7"/>
		
			<ellipse transform="matrix(3.327795e-02 -0.9994 0.9994 3.327795e-02 -677.7529 911.3047)" class="st10" cx="132.2" cy="806" rx="28.4" ry="28.4"/>
		<ellipse class="st10" cx="128.6" cy="705.8" rx="31.2" ry="31.2"/>
		<ellipse class="st10" cx="175.4" cy="606.4" rx="32.1" ry="32.1"/>
		<ellipse class="st10" cx="208.4" cy="806" rx="33.2" ry="33.2"/>
		<ellipse class="st10" cx="208.4" cy="705.8" rx="25.6" ry="25.6"/>
		<ellipse class="st10" cx="271.4" cy="705.8" rx="26.8" ry="26.8"/>
		<ellipse class="st10" cx="106.4" cy="606.4" rx="25.9" ry="25.9"/>
		<ellipse class="st10" cx="175.4" cy="508.5" rx="23.6" ry="23.6"/>
		<ellipse class="st10" cx="77" cy="508.5" rx="25.9" ry="25.9"/>
	</g>
	<g class="st0">
		<ellipse class="st11" cx="1287.5" cy="816.2" rx="22.1" ry="22.1"/>
		<ellipse class="st11" cx="1287.5" cy="716" rx="27.7" ry="27.7"/>
		<ellipse class="st11" cx="1217.9" cy="716" rx="24.7" ry="24.7"/>
		<ellipse class="st11" cx="1357.1" cy="716" rx="28" ry="28"/>
		<ellipse class="st11" cx="1358.9" cy="616.6" rx="30" ry="30"/>
		<ellipse class="st11" cx="1285.7" cy="616.6" rx="32.3" ry="32.3"/>
		<ellipse class="st11" cx="1209.5" cy="616.6" rx="32.9" ry="32.9"/>
		<ellipse class="st11" cx="1224.5" cy="518.7" rx="35.8" ry="35.8"/>
		<ellipse class="st11" cx="1301.9" cy="518.7" rx="31" ry="31"/>
		<ellipse class="st11" cx="1381.1" cy="518.7" rx="37.3" ry="37.3"/>
		<ellipse class="st11" cx="1295.3" cy="420.8" rx="32.9" ry="32.9"/>
	</g>
</g>
<g id="Titulos">
	<text transform="matrix(1 0 0 1 885.5377 363.1318)" class="st3 st5">Híbrido</text>
	<text transform="matrix(1 0 0 1 496.9988 860.7142)" class="st3 st4">Magia</text>
	<text transform="matrix(1 0 0 1 1078.2101 860.7142)" class="st3 st4">Dominio</text>
	<text transform="matrix(1 0 0 1 934.826 860.7132)" class="st3 st4">Zeon</text>
	<text transform="matrix(1 0 0 1 1270.5841 860.7132)" class="st3 st4">Crafting</text>
	<text transform="matrix(1 0 0 1 111.0851 860.7132)" class="st3 st4">Combate</text>
</g>
<g id="Capa_5">
	<g>
		<g>
			<circle class="st12" cx="1095.4" cy="812" r="24.7"/>
		</g>
		<g>
			<circle class="st12" cx="1059.4" cy="711.8" r="31.9"/>
		</g>
		<g>
			<circle class="st12" cx="1132.1" cy="711.8" r="30"/>
		</g>
		<g>
			<circle class="st12" cx="1061.7" cy="607.4" r="33.9"/>
		</g>
		<g>
			<circle class="st12" cx="1060.6" cy="514.5" r="27.5"/>
		</g>
		<g>
			<circle class="st12" cx="1060.6" cy="416.6" r="29.4"/>
		</g>
		<g>
			<circle class="st12" cx="1130.3" cy="416.6" r="29.4"/>
		</g>
		<g>
			<circle class="st12" cx="1130.3" cy="514.5" r="31.6"/>
		</g>
	</g>
	<g>
		<g>
			<circle class="st12" cx="945.4" cy="806" r="39.6"/>
		</g>
		<g>
			<circle class="st12" cx="945.4" cy="705.8" r="38.9"/>
		</g>
		<g>
			<circle class="st12" cx="945.4" cy="606.4" r="31"/>
		</g>
		<g>
			<circle class="st12" cx="913" cy="508.5" r="34.8"/>
		</g>
		<g>
			<circle class="st12" cx="985" cy="508.5" r="26.2"/>
		</g>
		<g>
			<circle class="st12" cx="913" cy="410.6" r="35.1"/>
		</g>
		<g>
			
				<ellipse transform="matrix(0.1602 -0.9871 0.9871 0.1602 520.6256 1242.322)" class="st12" cx="990.4" cy="315.2" rx="34.8" ry="34.8"/>
		</g>
		<g>
			<circle class="st12" cx="1063.6" cy="315.2" r="27.4"/>
		</g>
		<g>
			<circle class="st12" cx="990.4" cy="225" r="30.7"/>
		</g>
	</g>
	<g>
		<g>
			<circle class="st12" cx="902.2" cy="315.2" r="34.2"/>
		</g>
		<g>
			<circle class="st12" cx="902.2" cy="225" r="33.8"/>
		</g>
		<g>
			<circle class="st12" cx="902.2" cy="130.6" r="38.9"/>
		</g>
		<g>
			<circle class="st12" cx="902.2" cy="39.4" r="30.7"/>
		</g>
	</g>
	<g>
		<g>
			
				<ellipse transform="matrix(0.9239 -0.3827 0.3827 0.9239 -268.1901 256.1176)" class="st12" cx="509.7" cy="802.2" rx="35.1" ry="35.1"/>
		</g>
		<g>
			<circle class="st12" cx="509.8" cy="704.3" r="36.7"/>
		</g>
		<g>
			<circle class="st12" cx="239" cy="606.5" r="22.2"/>
		</g>
		<g>
			<circle class="st12" cx="300.8" cy="606.5" r="29.1"/>
		</g>
		<g>
			<circle class="st12" cx="369.2" cy="606.5" r="28.5"/>
		</g>
		<g>
			<circle class="st12" cx="438.9" cy="606.5" r="30.2"/>
		</g>
		<g>
			<circle class="st12" cx="509.7" cy="606.5" r="30.2"/>
		</g>
		<g>
			<circle class="st12" cx="589.5" cy="606.5" r="38.9"/>
		</g>
		<g>
			<circle class="st12" cx="673.5" cy="606.5" r="34.2"/>
		</g>
		<g>
			<circle class="st12" cx="747.9" cy="606.5" r="29.3"/>
		</g>
		<g>
			<circle class="st12" cx="818.2" cy="606.5" r="30.3"/>
		</g>
		<g>
			<circle class="st12" cx="438.9" cy="511.1" r="31"/>
		</g>
		<g>
			<circle class="st12" cx="589.5" cy="511.1" r="22.4"/>
		</g>
		<g>
			<circle class="st12" cx="751" cy="511.1" r="24.7"/>
		</g>
		<g>
			<circle class="st12" cx="817.6" cy="511.1" r="31"/>
		</g>
		<g>
			<circle class="st12" cx="751" cy="420.9" r="32.3"/>
		</g>
	</g>
	<g>
		<g>
			
				<ellipse transform="matrix(3.327793e-02 -0.9994 0.9994 3.327793e-02 -759.6343 826.6517)" class="st12" cx="47.5" cy="806" rx="32.3" ry="32.3"/>
		</g>
		<g>
			<circle class="st12" cx="53.5" cy="705.8" r="32.9"/>
		</g>
		<g>
			
				<ellipse transform="matrix(0.9985 -5.530039e-02 5.530039e-02 0.9985 -33.4743 3.0902)" class="st12" cx="39.1" cy="606.4" rx="30.7" ry="30.7"/>
		</g>
		<g>
			
				<ellipse transform="matrix(3.327795e-02 -0.9994 0.9994 3.327795e-02 -677.7529 911.3047)" class="st12" cx="132.2" cy="806" rx="28.4" ry="28.4"/>
		</g>
		<g>
			<circle class="st12" cx="128.6" cy="705.8" r="31.2"/>
		</g>
		<g>
			<circle class="st12" cx="175.4" cy="606.4" r="32.1"/>
		</g>
		<g>
			<circle class="st12" cx="208.4" cy="806" r="33.2"/>
		</g>
		<g>
			<circle class="st12" cx="208.4" cy="705.8" r="25.6"/>
		</g>
		<g>
			<circle class="st12" cx="271.4" cy="705.8" r="26.8"/>
		</g>
		<g>
			<circle class="st12" cx="106.4" cy="606.4" r="25.9"/>
		</g>
		<g>
			<circle class="st12" cx="175.4" cy="508.5" r="23.6"/>
		</g>
		<g>
			<circle class="st12" cx="77" cy="508.5" r="25.9"/>
		</g>
	</g>
	<g>
		<g>
			<circle class="st12" cx="1287.5" cy="816.2" r="22.1"/>
		</g>
		<g>
			<circle class="st12" cx="1287.5" cy="716" r="27.7"/>
		</g>
		<g>
			<circle class="st12" cx="1217.9" cy="716" r="24.7"/>
		</g>
		<g>
			<circle class="st12" cx="1357.1" cy="716" r="28"/>
		</g>
		<g>
			<circle class="st12" cx="1358.9" cy="616.6" r="30"/>
		</g>
		<g>
			<circle class="st12" cx="1285.7" cy="616.6" r="32.3"/>
		</g>
		<g>
			<circle class="st12" cx="1209.5" cy="616.6" r="32.9"/>
		</g>
		<g>
			<circle class="st12" cx="1224.5" cy="518.7" r="35.8"/>
		</g>
		<g>
			<circle class="st12" cx="1301.9" cy="518.7" r="31"/>
		</g>
		<g>
			<circle class="st12" cx="1381.1" cy="518.7" r="37.3"/>
		</g>
		<g>
			<circle class="st12" cx="1295.3" cy="420.8" r="32.9"/>
		</g>
	</g>
</g>
<g id="Capa_4">
	<g id="puntas_de_flecha">
		<polygon class="st13" points="48.6,745.2 51.1,739.3 52.8,745.4 		"/>
		<polygon class="st13" points="22,639.2 26.2,634.4 25.9,640.7 		"/>
		<polygon class="st13" points="127.4,743.7 129.3,737.6 131.6,743.5 		"/>
		<polygon class="st13" points="174.3,645 176.4,639 178.5,645 		"/>
		<polygon class="st13" points="77.9,736.9 74.9,731.4 80.8,733.8 		"/>
		<polygon class="st13" points="205.9,738.1 208,732.1 210.1,738.1 		"/>
		<polygon class="st13" points="251.2,733.1 256.2,729.2 254.7,735.4 		"/>
		<polygon class="st13" points="111,638.6 111.8,632.2 115.1,637.6 		"/>
		<polygon class="st13" points="156.4,640.5 160.9,635.9 160.2,642.3 		"/>
		<polygon class="st13" points="88.7,634 93.4,629.7 92.4,636 		"/>
		<polygon class="st13" points="172.9,538.6 175,532.6 177.1,538.6 		"/>
		<polygon class="st13" points="98.5,532.4 95.6,526.7 101.4,529.3 		"/>
		<polygon class="st13" points="62.7,538.1 66.9,533.3 66.6,539.6 		"/>
		<polygon class="st13" points="507.1,747.7 509.2,741.7 511.3,747.7 		"/>
		<polygon class="st13" points="251,632.9 249.2,626.8 254.4,630.5 		"/>
		<polygon class="st13" points="320.7,636.1 318.1,630.3 323.8,633.2 		"/>
		<polygon class="st13" points="389.4,635.2 386.9,629.4 392.5,632.4 		"/>
		<polygon class="st13" points="458.5,637.5 456.6,631.4 461.9,635 		"/>
		<polygon class="st13" points="507.1,643.2 509.2,637.2 511.3,643.2 		"/>
		<polygon class="st13" points="558.5,640.3 563.9,637 561.7,643 		"/>
		<polygon class="st13" points="643.4,634.5 649.2,632.1 646.2,637.6 		"/>
		<polygon class="st13" points="723.9,633.3 729.5,630.5 726.9,636.3 		"/>
		<polygon class="st13" points="793.5,633.9 799.2,631.2 796.4,636.9 		"/>
		<polygon class="st13" points="402.8,524.2 409.1,523.6 404.5,528.1 		"/>
		<polygon class="st13" points="436.3,548.7 438.4,542.7 440.5,548.7 		"/>
		<polygon class="st13" points="459.4,542.6 457.5,536.5 462.7,540.1 		"/>
		<polygon class="st13" points="587,540 589.1,534 591.2,540 		"/>
		<polygon class="st13" points="767.1,538 765.3,531.9 770.5,535.6 		"/>
		<polygon class="st13" points="815.3,548.7 817.3,542.7 819.5,548.7 		"/>
		<polygon class="st13" points="873,344.4 878.6,341.3 876.1,347.2 		"/>
		<polygon class="st13" points="748.4,459.7 750.5,453.7 752.6,459.7 		"/>
		<polygon class="st13" points="1070.2,748.7 1070.1,742.4 1074.1,747.3 		"/>
		<polygon class="st13" points="1116.9,745.6 1121,740.7 1120.9,747 		"/>
		<g>
			<polygon points="1059.2,646.2 1061.2,642.1 1062.5,646.4 			"/>
			<path d="M1061.1,642.9l1,3.2l-2.4-0.2L1061.1,642.9 M1061.2,641.3l-2.5,5.2l4.2,0.3L1061.2,641.3L1061.2,641.3z"/>
		</g>
		<polygon class="st13" points="1060.2,548.7 1061.9,542.5 1064.4,548.4 		"/>
		<polygon class="st13" points="1058.1,452.6 1060.2,446.6 1062.3,452.6 		"/>
		<polygon class="st13" points="1107.1,444.6 1112.3,441 1110.5,447.1 		"/>
		<polygon class="st13" points="1128.1,552.8 1130.1,546.8 1132.3,552.8 		"/>
		<polygon class="st13" points="1127.7,452.5 1129.8,446.5 1131.9,452.5 		"/>
		<polygon class="st13" points="942.9,751.3 945,745.3 947.1,751.3 		"/>
		<polygon class="st13" points="942.9,643.9 945,637.9 947.1,643.9 		"/>
		<polygon class="st13" points="923.7,548.5 923.8,542.2 927.7,547.2 		"/>
		<polygon class="st13" points="970.2,538.2 974.4,533.4 974.1,539.8 		"/>
		<polygon class="st13" points="910.5,452.3 912.6,446.3 914.7,452.3 		"/>
		<polygon class="st13" points="988.2,356.8 990.2,350.7 992.4,356.7 		"/>
		<polygon class="st13" points="1040.7,341.1 1046,337.6 1044,343.6 		"/>
		<polygon class="st13" points="928.2,346.5 925.6,340.7 931.3,343.6 		"/>
		<polygon class="st13" points="987.9,262.3 990,256.3 992.1,262.3 		"/>
		<polygon class="st13" points="1285,750.4 1287.1,744.4 1289.2,750.4 		"/>
		<polygon class="st13" points="1233.7,742.9 1232,736.8 1237.2,740.5 		"/>
		<polygon class="st13" points="1335.1,743.2 1340.3,739.5 1338.5,745.6 		"/>
		<polygon class="st13" points="1337.3,646.4 1342.3,642.5 1340.8,648.7 		"/>
		<polygon class="st13" points="1283.9,655.5 1285.9,649.5 1288.1,655.5 		"/>
		<polygon class="st13" points="1210.3,656.1 1211.9,649.9 1214.5,655.7 		"/>
		<polygon class="st13" points="1355.7,653.2 1357.9,647.2 1359.9,653.3 		"/>
		<polygon class="st13" points="1253,549.9 1249.7,544.5 1255.7,546.6 		"/>
		<polygon class="st13" points="1318.8,552.3 1317.5,546 1322.4,550.1 		"/>
		<polygon class="st13" points="1368.8,561.1 1372.2,555.7 1372.9,562 		"/>
		<polygon class="st13" points="1255.7,428.4 1262,428.5 1257,432.4 		"/>
		<polygon class="st13" points="1319.6,451.9 1317.2,446 1322.7,449.1 		"/>
		<polygon class="st13" points="899.7,265.4 901.8,259.4 903.9,265.4 		"/>
		<polygon class="st13" points="899.7,176.2 901.8,170.1 903.9,176.2 		"/>
		<polygon class="st13" points="899.7,76.5 901.8,70.5 903.9,76.5 		"/>
	</g>
	<g id="Lineas">
		<path class="st14" d="M49.5,773.5c0.5-8.9,1.1-18.7,1.7-28"/>
		<path class="st14" d="M30.9,778.8c-5.8-10.2-19.1-39-19.1-72.9c0-27.4,9.3-57,12.6-65.5"/>
		<path class="st14" d="M131.2,777.3c-0.4-10.4-0.8-22.3-1.2-33.3"/>
		<path class="st14" d="M147.8,782.2c6.5-10.9,13.5-24.3,17.4-37.4c9.6-32.6,11.7-71.2,11.7-99.3"/>
		<path class="st14" d="M186,781.4c-6.1-5.5-13.1-11-20.2-15c-29.8-16.8-44.4-4.2-73.8-21.6c-4.2-2.5-8.3-5.6-12.2-8.9"/>
		<path class="st14" d="M208.4,772.7c0-11,0-23.2,0-34.2"/>
		<path class="st14" d="M226.1,777.5c8.5-13.4,18.7-29.4,27.3-42.9"/>
		<path class="st14" d="M121.8,675.2c-2.6-11.6-5.6-24.9-8.3-36.7"/>
		<path class="st14" d="M141.9,677.3c5.3-11.1,11.4-23.9,16.9-35.6"/>
		<path class="st14" d="M69,676.5c7-13,15.2-28.2,22.1-41.2"/>
		<path class="st14" d="M175.4,574.1c0-11.3,0-23.9,0-35"/>
		<path class="st14" d="M153.1,583c-5.1-5.1-10.5-10.5-15.5-15.5c-12.2-12.1-26-25.4-37.3-36.2"/>
		<path class="st14" d="M50.2,577.5c4.7-12,10.2-26,15-38.2"/>
		<path class="st14" d="M509.7,767c0-6.1,0-12.6,0-18.9"/>
		<path class="st14" d="M472.7,702.7c-50.6-3-142.4-14.5-206.1-57.3c-5.2-3.5-9.8-8.3-13.6-13.4"/>
		<path class="st14" d="M473.5,697.4c-37.1-7.8-95.3-23.6-138.5-52c-4.4-2.9-8.6-6.5-12.4-10.3"/>
		<path class="st14" d="M476.1,688.9c-21.8-10.5-50.3-25.8-72.6-43.5c-4.2-3.3-8.3-7.2-12.1-11.1"/>
		<path class="st14" d="M488.2,674.5c-8.8-11.9-18.9-25.7-27.6-37.7"/>
		<path class="st14" d="M509.7,667.5c0-7.8,0-16.1,0-24"/>
		<path class="st14" d="M532.8,675.8c8.7-10.5,18.7-22.7,27.9-33.8"/>
		<path class="st14" d="M544,691.2c25.9-10.3,61.7-26.3,89.9-45.8c3.9-2.7,7.8-5.8,11.5-9"/>
		<path class="st14" d="M546.3,699.4c42.7-6.4,114.2-21.3,166.8-54c4.5-2.8,8.8-6.4,12.7-10.2"/>
		<path class="st14" d="M546.6,702.8c54.9-2.8,159.9-14,236.1-57.4c4.5-2.6,8.8-6,12.8-9.6"/>
		<path class="st14" d="M318.6,583.3c5-5.5,10.6-11.2,16.4-15.8c21.2-16.7,48.1-31,69.3-41"/>
		<path class="st14" d="M438.9,576.1c0-8.6,0-18.1,0-27"/>
		<path class="st14" d="M491.8,582.1c-9.2-12.2-20.5-27.3-30.4-40.4"/>
		<path class="st14" d="M589.5,567.3c0-9,0-18.4,0-26.8"/>
		<path class="st14" d="M800.7,581.4c-9.7-13.6-21.8-30.5-31.6-44.2"/>
		<path class="st14" d="M818,576.1c-0.1-8.6-0.1-18.1-0.2-27"/>
		<path class="st14" d="M840.9,586.4c67.9-106.2-10-213.5,34.2-240.2"/>
		<path class="st14" d="M751,486.2c0-8.1,0-17.3,0-26.2"/>
		<path class="st14" d="M1087.1,788.4c-4.3-11.9-9.7-26.6-14.6-40"/>
		<path class="st14" d="M1103.8,788.7c4.6-12.4,10.4-28,15.5-41.9"/>
		<path class="st15" d="M1061.7,680c0.5-6.9-1.1-30.3-0.5-37.7"/>
		<path class="st14" d="M1064.3,573.3c-0.5-8.1-1-16.5-1.5-24.4"/>
		<path class="st14" d="M1060.6,486.9c0-10.5,0-22.7,0-33.9"/>
		<path class="st14" d="M1076.4,491.9c9.7-13.5,22.4-31.1,32.9-45.7"/>
		<path class="st14" d="M1131.8,681.7c-0.3-34.3-0.8-91-1.2-128.5"/>
		<path class="st14" d="M1130.3,482.7c0-9.6,0-20.1,0-30"/>
		<path class="st14" d="M945.4,766.3c0-4.8,0-9.7,0-14.5"/>
		<path class="st14" d="M945.4,666.7c0-7.3,0-15,0-22.3"/>
		<path class="st14" d="M935.7,576.7c-3-8.9-6.4-19-9.5-28.5"/>
		<path class="st14" d="M957,577.5c4.9-11.9,10.6-25.9,15.6-38.1"/>
		<path class="st14" d="M913,473.5c0-6.7,0-13.8,0-20.8"/>
		<path class="st14" d="M942.7,391.8c12.9-34.6,36.8-13.8,48-34.8"/>
		<path class="st14" d="M946.5,400.1c46.3-34,56.9-12.9,96.4-57.4"/>
		<path class="st14" d="M931.7,380.9c26.2-14.7,10.3-22.8-1.6-35.5"/>
		<path class="st14" d="M990.4,280.2c0-5.8,0-11.8,0-17.6"/>
		<path class="st14" d="M1287.5,793.8c0-12.6,0-28.8,0-43.1"/>
		<path class="st14" d="M1275.1,797.9c-10.9-15.5-27-38.4-39.3-55.8"/>
		<path class="st14" d="M1300,797.9c10.4-14.7,25.3-36,37.3-53"/>
		<path class="st14" d="M1305.2,694.6c6-7.3,12.6-15.6,18.3-23.4c5.4-7.4,10.9-15.5,16-23.2"/>
		<path class="st14" d="M1287,688.1c-0.2-10-0.4-21.4-0.6-32.2"/>
		<path class="st14" d="M1215.8,691.1c-0.9-10.5-2-23.1-3-34.8"/>
		<path class="st14" d="M1357.6,687.8c0.2-10.6,0.4-22.8,0.6-34.1"/>
		<path class="st14" d="M1340.6,592.6c-5.1-5.5-11-10.9-17.1-15c-22.9-15.4-34.6-7.3-58.2-21.6c-3.6-2.2-7.1-4.7-10.6-7.3"/>
		<path class="st14" d="M1343.8,590.3c-7-11.9-15.4-26.1-22.8-38.7"/>
		<path class="st14" d="M1365.5,587.2c1.8-8,3.9-16.8,5.8-25.4"/>
		<path class="st14" d="M1265.1,591.5c-5.2-5.1-11.1-10.1-17.2-13.9c-25.8-16.1-47.1,3-64.8-21.6c-19.4-26.9-17.1-46.2,0-74.7
			c15.9-26.5,47.9-41.9,73.7-50.5"/>
		<path class="st14" d="M1356.5,490.4c-11-12.4-23.9-26.9-35.1-39.5"/>
		<path class="st14" d="M902.2,281c0-4.9,0-10.1,0-15.1"/>
		<path class="st14" d="M902.2,191c0-4.7,0-9.6,0-14.4"/>
		<path class="st14" d="M902.2,91.6c0-4.8,0-9.7,0-14.5"/>
	</g>
</g>
<g id="textos">
	<text transform="matrix(1 0 0 1 881.2902 35.7581)" class="st16"><tspan x="0" y="0" class="st3 st4">Ascensión</tspan><tspan x="3.8" y="10.1" class="st3 st4">Artificial</tspan></text>
	<text transform="matrix(1 0 0 1 35.4291 803.8974)" class="st16"><tspan x="0" y="0" class="st3 st4">Golpe</tspan><tspan x="-10.8" y="10.1" class="st3 st4">Potenciado</tspan></text>
	<text transform="matrix(1 0 0 1 30.3468 703.9212)" class="st16"><tspan x="0" y="0" class="st3 st4">Cazador de</tspan><tspan x="2" y="10.1" class="st3 st4">Monstruos</tspan></text>
	<text transform="matrix(1 0 0 1 27.0293 604.5474)" class="st16"><tspan x="0" y="0" class="st3 st4">Golpe</tspan><tspan x="-9.9" y="10.1" class="st3 st4">Perforante</tspan></text>
	<text transform="matrix(1 0 0 1 116.6288 803.8976)" class="st16"><tspan x="0" y="0" class="st3 st4">Esquiva</tspan><tspan x="-3.6" y="10.1" class="st3 st4">Instintiva</tspan></text>
	<text transform="matrix(1 0 0 1 104.6491 708.8765)" class="st3 st4">Anticipación</text>
	<text transform="matrix(1 0 0 1 147.8289 609.4977)" class="st3 st4">Contraataque</text>
	<text transform="matrix(1 0 0 1 190.9258 803.8975)" class="st16"><tspan x="0" y="0" class="st3 st4">Aguante</tspan><tspan x="-6.1" y="10.1" class="st3 st4">Prolongado</tspan></text>
	<text transform="matrix(1 0 0 1 191.8871 702.7001)" class="st16"><tspan x="0" y="0" class="st3 st4">Guardia</tspan><tspan x="-0.6" y="10.1" class="st3 st4">Perfecta</tspan></text>
	<text transform="matrix(1 0 0 1 252.9382 702.4302)" class="st16"><tspan x="0" y="0" class="st3 st4">Segundo</tspan><tspan x="3.9" y="10.1" class="st3 st4">Aliento</tspan></text>
	<text transform="matrix(1 0 0 1 88.9893 604.5474)" class="st16"><tspan x="0" y="0" class="st3 st4">Ejecutar</tspan><tspan x="2.3" y="10.1" class="st3 st4">Bestias</tspan></text>
	<text transform="matrix(1 0 0 1 156.5818 511.5006)" class="st3 st4">Desarme</text>
	<text transform="matrix(1 0 0 1 60.2598 505.4082)" class="st16"><tspan x="0" y="0" class="st3 st4">Maestro</tspan><tspan x="-0.3" y="10.1" class="st3 st4">Duelista</tspan></text>
	<text transform="matrix(1 0 0 1 484.511 800.3228)" class="st16"><tspan x="0" y="0" class="st3 st4">Sensibilidad</tspan><tspan x="8.8" y="10.1" class="st3 st4">al Mana</tspan></text>
	<text transform="matrix(1 0 0 1 485.0963 703.9216)" class="st16"><tspan x="0" y="0" class="st3 st4">Canalización</tspan><tspan x="12.8" y="10.1" class="st3 st4">Básica</tspan></text>
	<text transform="matrix(1 0 0 1 229.067 609.4974)" class="st3 st4">Ignición</text>
	<text transform="matrix(1 0 0 1 277.5255 609.4974)" class="st3 st4">Criomancia</text>
	<text transform="matrix(1 0 0 1 347.1427 609.4974)" class="st3 st4">Geomancia</text>
	<text transform="matrix(1 0 0 1 413.4084 609.4974)" class="st3 st4">Electrofonía</text>
	<text transform="matrix(1 0 0 1 484.4615 609.4974)" class="st3 st4">Aeromancia</text>
	<text transform="matrix(1 0 0 1 562.1444 604.5474)" class="st16"><tspan x="0" y="0" class="st3 st4">Manipulación</tspan><tspan x="8.3" y="10.1" class="st3 st4">del Vacío</tspan></text>
	<text transform="matrix(1 0 0 1 645.2958 609.4973)" class="st3 st4">Umbramancia</text>
	<text transform="matrix(1 0 0 1 723.7116 609.4974)" class="st3 st4">Fotomancia</text>
	<text transform="matrix(1 0 0 1 801.8415 604.5475)" class="st16"><tspan x="0" y="0" class="st3 st4">Sintesis</tspan><tspan x="-4.5" y="10.1" class="st3 st4">Elemental</tspan></text>
	<text transform="matrix(1 0 0 1 417.2172 508.2042)" class="st16"><tspan x="0" y="0" class="st3 st4">Alteración</tspan><tspan x="1.7" y="10.1" class="st3 st4">Climática</tspan></text>
	<text transform="matrix(1 0 0 1 576.9022 508.205)" class="st16"><tspan x="0" y="0" class="st3 st4">Portal</tspan><tspan x="-0.8" y="10.1" class="st3 st4">Menor</tspan></text>
	<text transform="matrix(1 0 0 1 731.9308 512.5493)" class="st3 st4">Ritualista</text>
	<text transform="matrix(1 0 0 1 797.1678 508.204)" class="st16"><tspan x="0" y="0" class="st3 st4">Alteración</tspan><tspan x="1.7" y="10.1" class="st3 st4">Climática</tspan></text>
	<text transform="matrix(1 0 0 1 878.1578 313.3177)" class="st16"><tspan x="0" y="0" class="st3 st4">Hibridación</tspan><tspan x="6.9" y="10.1" class="st3 st4">Forzada</tspan></text>
	<text transform="matrix(1 0 0 1 728.6083 417.9495)" class="st16"><tspan x="0" y="0" class="st3 st4">Invocación</tspan><tspan x="9.7" y="10.1" class="st3 st4">Menor</tspan></text>
	<text transform="matrix(1 0 0 1 1075.3723 814.9927)" class="st3 st4">Presencia</text>
	<text transform="matrix(1 0 0 1 1043.7527 707.3527)" class="st16"><tspan x="0" y="0" class="st3 st4">Lectura</tspan><tspan x="-5.9" y="10.1" class="st3 st4">Emocional</tspan></text>
	<text transform="matrix(1 0 0 1 1116.9119 708.8766)" class="st16"><tspan x="0" y="0" class="st3 st4">Aura de</tspan><tspan x="-3.9" y="10.1" class="st3 st4">Liderazgo</tspan></text>
	<text transform="matrix(1 0 0 1 1035.1444 604.5471)" class="st16"><tspan x="0" y="0" class="st3 st4">Manipulación</tspan><tspan x="10.4" y="10.1" class="st3 st4">Psíquica</tspan></text>
	<text transform="matrix(1 0 0 1 1043.2267 511.1501)" class="st16"><tspan x="0" y="0" class="st3 st4">Dominio</tspan><tspan x="3.4" y="10.1" class="st3 st4">Mental</tspan></text>
	<text transform="matrix(1 0 0 1 1040.3896 414.6616)" class="st16"><tspan x="0" y="0" class="st3 st4">Subyugar</tspan><tspan x="-0.3" y="10.1" class="st3 st4">Entidades</tspan></text>
	<text transform="matrix(1 0 0 1 1110.3969 414.6616)" class="st16"><tspan x="0" y="0" class="st3 st4">Comando</tspan><tspan x="1.7" y="10.1" class="st3 st4">Absoluto</tspan></text>
	<text transform="matrix(1 0 0 1 1108.1047 511.5004)" class="st16"><tspan x="0" y="0" class="st3 st4">Juramento</tspan><tspan x="0.3" y="10.1" class="st3 st4">Vinculante</tspan></text>
	<text transform="matrix(1 0 0 1 916.8469 804.0404)" class="st16"><tspan x="0" y="0" class="st3 st4">Conocimiento</tspan><tspan x="12.8" y="10.1" class="st3 st4">Técnico</tspan></text>
	<text transform="matrix(1 0 0 1 918.1079 703.9214)" class="st16"><tspan x="0" y="0" class="st3 st4">Manipulación</tspan><tspan x="16.8" y="10.1" class="st3 st4">Zeon</tspan></text>
	<text transform="matrix(1 0 0 1 923.8463 603.4407)" class="st16"><tspan x="0" y="0" class="st3 st4">Tolerancia</tspan><tspan x="5.2" y="10.1" class="st3 st4">al Vacío</tspan></text>
	<text transform="matrix(1 0 0 1 888.8259 508.2046)" class="st16"><tspan x="0" y="0" class="st3 st4">Armamento</tspan><tspan x="14.1" y="10.1" class="st3 st4">Zeon</tspan></text>
	<text transform="matrix(1 0 0 1 968.0798 508.2048)" class="st16"><tspan x="0" y="0" class="st3 st4">Blindaje</tspan><tspan x="6.3" y="10.1" class="st3 st4">Zeon</tspan></text>
	<text transform="matrix(1 0 0 1 890.8202 408.6614)" class="st16"><tspan x="0" y="0" class="st3 st4">Reactor de</tspan><tspan x="-2.3" y="10.1" class="st3 st4">Compresión</tspan></text>
	<text transform="matrix(1 0 0 1 969.7228 312.1748)" class="st16"><tspan x="0" y="0" class="st3 st4">Supresión</tspan><tspan x="-2.5" y="10.1" class="st3 st4">Mana Local</tspan></text>
	<text transform="matrix(1 0 0 1 1041.9048 318.2682)" class="st3 st4">Autómatas</text>
	<text transform="matrix(1 0 0 1 970.4802 221.2057)" class="st16"><tspan x="0" y="0" class="st3 st4">Anulación</tspan><tspan x="2.3" y="10.1" class="st3 st4">Regional</tspan></text>
	<text transform="matrix(1 0 0 1 1276.5542 813.938)" class="st16"><tspan x="0" y="0" class="st3 st4">Forja</tspan><tspan x="-2.7" y="10.1" class="st3 st4">Básica</tspan></text>
	<text transform="matrix(1 0 0 1 1266.111 719.0757)" class="st3 st4">Metalurgia</text>
	<text transform="matrix(1 0 0 1 1199.6987 719.076)" class="st3 st4">Alquimia</text>
	<text transform="matrix(1 0 0 1 1334.8615 719.0755)" class="st3 st4">Carpintería</text>
	<text transform="matrix(1 0 0 1 1338.5861 614.6351)" class="st16"><tspan x="0" y="0" class="st3 st4">Ingeniería</tspan><tspan x="12.4" y="10.1" class="st3 st4">Civil</tspan></text>
	<text transform="matrix(1 0 0 1 1262.5986 614.4487)" class="st16"><tspan x="0" y="0" class="st3 st4">Metalurgia</tspan><tspan x="11.5" y="10.1" class="st3 st4">Zeon</tspan></text>
	<text transform="matrix(1 0 0 1 1186.8346 614.6351)" class="st16"><tspan x="0" y="0" class="st3 st4">Destilación</tspan><tspan x="2.5" y="10.1" class="st3 st4">Avanzada</tspan></text>
	<text transform="matrix(1 0 0 1 1198.4506 515.5786)" class="st16"><tspan x="0" y="0" class="st3 st4">Arquitectura</tspan><tspan x="13.1" y="10.1" class="st3 st4">Militar</tspan></text>
	<text transform="matrix(1 0 0 1 1279.4771 515.5784)" class="st16"><tspan x="0" y="0" class="st3 st4">Ingeniería</tspan><tspan x="0.4" y="10.1" class="st3 st4">Hidráulica</tspan></text>
	<text transform="matrix(1 0 0 1 1355.6359 514.1499)" class="st16"><tspan x="0" y="0" class="st3 st4">Construcción</tspan><tspan x="1.2" y="10.1" class="st3 st4">Monumental</tspan></text>
	<text transform="matrix(1 0 0 1 1272.4266 417.8655)" class="st16"><tspan x="0" y="0" class="st3 st4">Producción</tspan><tspan x="2.7" y="10.1" class="st3 st4">Industrial</tspan></text>
	<text transform="matrix(1 0 0 1 884.2452 221.2059)" class="st16"><tspan x="0" y="0" class="st3 st4">Catálisis</tspan><tspan x="-6.3" y="10.1" class="st3 st4">Mana-Zeon</tspan></text>
	<text transform="matrix(1 0 0 1 874.1224 128.681)" class="st16"><tspan x="0" y="0" class="st3 st4">Biotecnología</tspan><tspan x="13.6" y="10.1" class="st3 st4">Arcana</tspan></text>
</g>
</svg>
