<?xml version="1.0" encoding="utf-8"?>
<!-- Generator: Adobe Illustrator 13.0.0, SVG Export Plug-In . SVG Version: 6.00 Build 14948)  -->
<!DOCTYPE svg PUBLIC "-//W3C//DTD SVG 1.1//EN" "http://www.w3.org/Graphics/SVG/1.1/DTD/svg11.dtd">
<svg version="1.1" xmlns="http://www.w3.org/2000/svg" xmlns:xlink="http://www.w3.org/1999/xlink" x="0px" y="0px"
     width="19.002px" height="32px" viewBox="0 0 19.002 32" enable-background="new 0 0 19.002 32" xml:space="preserve">
<g id="cerrada" display="none">
	<g display="inline">
		<g>
			<polygon fill="#784800" points="18.502,31.501 18.002,31.501 2.002,31.501 1.501,31.501 1.501,31.001 1.501,0.999 1.501,0.499 
				2.002,0.499 18.002,0.499 18.502,0.499 18.502,0.999 18.502,31.001 18.502,31.501 			"/>
            <path fill="#877969" d="M18.002,1v30h-16V1H18.002 M19.002,0h-1h-16h-1v1v30v1h1h16h1v-1V1V0L19.002,0z"/>
		</g>
        <g>
			<rect x="14.906" y="12.917" width="2.084" height="3"/>
		</g>
        <rect x="14.928" y="17" width="2.041" height="0.958"/>
	</g>
</g>
    <g id="abierta">
	<g>
		<g>
			<polygon fill="#784800" points="3.501,31.501 3.001,31.501 2.002,31.501 1.501,31.501 1.501,31.001 1.501,0.999 1.501,0.499 
				2.002,0.499 3.001,0.499 3.501,0.499 3.501,0.999 3.501,31.001 3.501,31.501 			"/>
            <path fill="#877969" d="M3.002,1v30h-1V1H3.002 M4.002,0h-1h-1h-1v1v30v1h1h1h1v-1V1V0L4.002,0z"/>
		</g>
        <g>
			<rect y="13" width="1" height="3"/>
		</g>
	</g>
</g>
</svg>
