<?xml version="1.0" encoding="utf-8"?>
<!-- Generator: Adobe Illustrator 13.0.0, SVG Export Plug-In . SVG Version: 6.00 Build 14948)  -->
<!DOCTYPE svg PUBLIC "-//W3C//DTD SVG 1.1//EN" "http://www.w3.org/Graphics/SVG/1.1/DTD/svg11.dtd">
<svg version="1.1" xmlns="http://www.w3.org/2000/svg" xmlns:xlink="http://www.w3.org/1999/xlink" x="0px" y="0px"
     width="128px"
     height="96px" viewBox="0 0 128 96" enable-background="new 0 0 128 96" xml:space="preserve">
<g id="Colorear">
	<path fill="#FFFFFF" stroke="#000000" d="M10.27-67.74C9.531-67.953,8.965-68.545,8.371-69c-0.716-0.549-1.483-0.928-2.233-1.411
		c-0.495-0.318-1.167-0.868-0.939-1.533c0.396-1.158,1.686-1.23,1.559-2.672c-0.109-1.24-1.111-2.163-2.044-2.885
		c-0.548-0.425-1.586-0.956-1.467-1.831c0.14-1.026,1.626-1.933,2.403-2.417c1.282-0.799,1.034-1.752,0.194-2.779
		c-0.913-1.115-1.661-1.6-0.583-2.855c1.584-1.843,2.726-4.018,4.899-5.307c1.431-0.85,3.994-0.31,5.674-0.31
		c1.547,0,3.713-0.354,5.167,0.144c0.661,0.226,1.802,0.604,2.337,0.936c0.712,0.441,0.704,1.134,0.929,1.938
		c0.441,1.574,1.51,2.722,1.729,4.236c0.105,0.723,0.045,1.632,0.257,2.329c0.217,0.714,0.919,1.156,1.148,1.896
		c0.169,0.548,0.304,1.526,0.183,2.104c-0.201,0.964-0.652,0.638-1.5,0.75c-1.711,0.225-1.531,2.473-1.067,3.769
		c0.251,0.7,0.648,0.974,0.734,1.731c0.068,0.597,0.222,1.952-0.015,2.481c-0.523,1.169-2.905,2.304-3.983,2.771
		c-1.447,0.626-3.657,0.248-5.253,0.248c-1.459,0-2.919,0.008-4.378,0.002c-0.562-0.002-1.197,0.081-1.747-0.048
		C10.339-67.721,10.304-67.73,10.27-67.74z"/>
    <path fill="#FFFFFF" stroke="#000000" d="M10.27-35.74C9.531-35.953,8.965-36.545,8.371-37c-0.716-0.55-1.483-0.929-2.233-1.412
		c-0.495-0.318-1.413-2.533-1.185-3.199c0.396-1.158,1.932,0.437,1.805-1.006c-0.109-1.24-1.357-3.828-2.29-4.551
		C3.919-47.594,2.881-48.125,3-49c0.14-1.026,1.873-0.267,2.649-0.75c1.282-0.799,1.034-1.752,0.194-2.779
		c-3.095-3.782,2.144-6.874,4.316-8.162C11.591-61.54,14.154-61,15.834-61c1.547,0,3.713-0.354,5.167,0.144
		c0.661,0.226,1.802,0.604,2.337,0.936c0.712,0.441,0.704,1.134,0.929,1.938c0.441,1.574,1.51,2.722,1.729,4.236
		c0.105,0.723,0.045,1.632,0.257,2.329c0.217,0.714,1.336,3.573,1.564,4.313C27.986-46.557,28.121-45.578,28-45
		c-0.201,0.965-0.652,0.639-1.5,0.75c-1.711,0.225-1.947,0.057-1.484,1.352c0.251,0.701,0.648,0.975,0.734,1.732
		c0.068,0.596,0.222,1.951-0.015,2.48c-0.523,1.169-2.905,2.305-3.983,2.771c-1.447,0.626-3.657,0.248-5.253,0.248
		c-1.459,0-2.919,0.008-4.378,0.002c-0.562-0.002-1.197,0.08-1.747-0.049C10.339-35.721,10.304-35.73,10.27-35.74z"/>
    <path fill="#FFFFFF" stroke="#000000" d="M10.27-3.74C9.531-3.953,8.965-4.545,8.371-5C7.654-5.55,6.75-5.517,6-6
		c-0.495-0.318-0.757-2.383,1-4c0.916-0.843-1.167-2.999-2.583-1.583c-0.491,0.491-1.286-1.249-1.167-2.125
		c0.14-1.025,1.34-3.265,1.75-4.083c0.667-1.333-2.917-1.417,0.261-5.594c1.472-1.935,2.726-4.018,4.899-5.307
		C11.591-29.54,14.154-29,15.834-29c1.547,0,3.713-0.354,5.167,0.144c0.661,0.226,1.802,0.604,2.337,0.937
		c0.712,0.441,0.704,1.134,0.929,1.938c0.441,1.574,1.51,2.723,1.729,4.236c0.105,0.724,0.31,1.604,0.257,2.33
		c-0.127,1.75,0.389,1.438,1.456,0.75c0.482-0.311,0.246,3.172,0.125,3.75c-0.201,0.964-0.568,2.055-1.417,2.167
		c-1.711,0.225-0.755,1.955-0.292,3.25c0.251,0.701-0.153,2.284-0.39,2.813c-0.523,1.169-2.905,2.305-3.983,2.771
		c-1.447,0.626-3.657,0.248-5.253,0.248c-1.459,0-2.919,0.008-4.378,0.002c-0.562-0.002-1.197,0.08-1.747-0.049
		C10.339-3.721,10.304-3.73,10.27-3.74z"/>
    <path fill="#FFFFFF" stroke="#000000" d="M54.185-34.906c0.738-0.213,1.305-0.805,1.899-1.26c0.716-0.55,1.483-0.929,2.233-1.412
		c0.495-0.318,1.413-2.533,1.185-3.199c-0.396-1.158-1.932,0.437-1.805-1.006c0.109-1.24,1.357-3.828,2.29-4.551
		c0.548-0.426,1.586-0.957,1.467-1.832c-0.14-1.026-1.873-0.267-2.649-0.75c-1.282-0.799-1.034-1.752-0.194-2.779
		c3.095-3.782-2.144-6.874-4.316-8.162c-1.431-0.849-3.994-0.309-5.674-0.309c-1.547,0-3.713-0.354-5.167,0.144
		c-0.661,0.226-1.802,0.604-2.337,0.936c-0.712,0.441-0.704,1.134-0.929,1.938c-0.441,1.574-1.51,2.722-1.729,4.236
		c-0.105,0.723-0.045,1.632-0.257,2.329c-0.217,0.714-1.336,3.573-1.564,4.313c-0.169,0.547-0.304,1.525-0.183,2.104
		c0.201,0.965,0.652,0.639,1.5,0.75c1.711,0.225,1.947,0.057,1.484,1.352c-0.251,0.701-0.648,0.975-0.734,1.732
		c-0.068,0.596-0.222,1.951,0.015,2.48c0.523,1.169,2.905,2.305,3.983,2.771c1.447,0.626,3.657,0.248,5.253,0.248
		c1.459,0,2.919,0.008,4.378,0.002c0.562-0.002,1.197,0.08,1.747-0.049C54.115-34.887,54.15-34.896,54.185-34.906z"/>
    <path fill="#FFFFFF" stroke="#000000" d="M54.185-2.906c0.738-0.213,1.305-0.805,1.899-1.26c0.716-0.55,1.62-0.517,2.371-1
		c0.495-0.318,0.757-2.383-1-4c-0.916-0.843,1.167-2.999,2.583-1.583c0.491,0.491,1.286-1.249,1.167-2.125
		c-0.14-1.025-1.34-3.265-1.75-4.083c-0.667-1.333,2.917-1.417-0.261-5.594c-1.472-1.935-2.726-4.018-4.899-5.307
		c-1.431-0.849-3.994-0.309-5.674-0.309c-1.547,0-3.713-0.354-5.167,0.144c-0.661,0.226-1.802,0.604-2.337,0.937
		c-0.712,0.441-0.704,1.134-0.929,1.938c-0.441,1.574-1.51,2.723-1.729,4.236c-0.105,0.724-0.31,1.604-0.257,2.33
		c0.127,1.75-0.389,1.438-1.456,0.75c-0.482-0.311-0.246,3.172-0.125,3.75c0.201,0.964,0.568,2.055,1.417,2.167
		c1.711,0.225,0.755,1.955,0.292,3.25c-0.251,0.701,0.153,2.284,0.39,2.813c0.523,1.169,2.905,2.305,3.983,2.771
		c1.447,0.626,3.657,0.248,5.253,0.248c1.459,0,2.919,0.008,4.378,0.002c0.562-0.002,1.197,0.08,1.747-0.049
		C54.115-2.887,54.15-2.896,54.185-2.906z"/>
    <path fill="#FFFFFF" stroke="#000000" d="M53.967-66.187c0.738-0.213,1.305-0.806,1.899-1.261c0.716-0.549,1.483-0.928,2.233-1.411
		c0.495-0.318,1.167-0.868,0.939-1.533c-0.396-1.158-1.686-1.23-1.559-2.672c0.109-1.24,1.111-2.163,2.044-2.885
		c0.548-0.425,1.586-0.956,1.467-1.831c-0.14-1.026-1.626-1.933-2.403-2.417c-1.282-0.799-1.034-1.752-0.194-2.779
		c0.913-1.115,1.661-1.6,0.583-2.855c-1.584-1.843-2.726-4.018-4.899-5.307c-1.431-0.849-3.994-0.309-5.674-0.309
		c-1.547,0-3.713-0.354-5.167,0.144c-0.661,0.226-1.802,0.604-2.337,0.936c-0.712,0.441-0.704,1.134-0.929,1.938
		c-0.441,1.574-1.51,2.722-1.729,4.236c-0.105,0.723-0.045,1.632-0.257,2.329c-0.217,0.714-0.919,1.156-1.148,1.896
		c-0.169,0.548-0.304,1.526-0.183,2.104c0.201,0.964,0.652,0.638,1.5,0.75c1.711,0.225,1.531,2.473,1.067,3.769
		c-0.251,0.7-0.648,0.974-0.734,1.731c-0.068,0.597-0.222,1.952,0.015,2.481c0.523,1.169,2.905,2.304,3.983,2.771
		c1.447,0.626,3.657,0.248,5.253,0.248c1.459,0,2.919,0.008,4.378,0.002c0.563-0.002,1.197,0.081,1.747-0.048
		C53.898-66.167,53.933-66.177,53.967-66.187z"/>
    <path fill="#FFFFFF" stroke="#000000" d="M74.117-77.5c0.381,0,1.429-0.192,1.758-0.004c0.615,0.351,0.227,2.71,0.141,3.325
		c-0.086,0.618-0.18,1.207-0.203,1.828c-0.021,0.591,0.203,1.124-0.312,1.352c-0.476,0.21-1.541,0-2.073,0
		c-0.76,0-1.537-0.039-2.291,0.011c-0.615,1.457,1.605,2.791,2.785,3.128c0.85,0.243,1.893,0.111,2.799,0.111
		c1.377,0,2.734,0.066,4.104,0.126c1.092,0.048,2.539,0.223,3.563-0.141c0.84-0.298,1.649-0.767,2.453-1.125
		c0.79-0.352,1.823-0.561,1.973-1.488c0.108-0.683-0.11-1.294-0.436-1.872c-0.32-0.573-1.152-1.274-1.191-1.942
		c-0.033-0.566,0.563-1.324,0.873-1.749c0.717-0.984,2.002-1.178,1.691-2.684c-0.285-1.39-1.927-2.451-2.001-3.936
		c-0.044-0.886,0.61-1.332,0.892-2.065c0.287-0.75,0.014-1.344-0.254-2.045c-0.398-1.043-0.682-1.754-1.453-2.583
		c-0.547-0.586-1.098-1.141-1.623-1.747c-0.549-0.631-0.91-1.329-1.682-1.688c-0.93-0.433-1.98-0.696-3.02-0.75
		c-1.35-0.07-2.477,0.265-3.737,0.612c-0.793,0.219-1.472,0.209-2.224,0.574c-1.467,0.711-2.957,1.64-3.918,3
		c-0.609,0.865-1.029,1.855-1.481,2.795c-0.603,1.252-0.688,2.183-0.688,3.583c0,0.959,0.002,1.918,0,2.877
		c-0.002,1.295,0.213,1.853,1.313,2.309C70.855-77.281,72.725-77.5,74.117-77.5z"/>
    <path fill="#FFFFFF" stroke="#000000" d="M74.367-46.125c0.381,0,1.429-0.192,1.758-0.004c0.615,0.351,0.227,2.71,0.141,3.324
		c-0.086,0.617-0.18,1.207-0.203,1.828c-0.021,0.591,0.203,1.123-0.312,1.352c-0.476,0.21-1.541,0-2.073,0
		c-0.76,0-1.537-0.039-2.291,0.011c-0.615,1.456,1.605,2.79,2.785,3.128c0.85,0.243,1.893,0.111,2.799,0.111
		c1.377,0,2.734,0.066,4.104,0.127c1.092,0.048,2.539,0.223,3.563-0.141c0.84-0.299,1.649-0.768,2.453-1.125
		c0.79-0.352,1.322-3.063,1.471-3.99c0.109-0.682-0.109-1.293-0.435-1.871c-0.321-0.572-1.153-1.273-1.19-1.943
		c-0.033-0.566,0.563-1.324,0.873-1.748c0.717-0.984,2-1.177,1.69-2.684c-0.285-1.39-1.927-2.451-2.001-3.936
		c-0.044-0.886,1.406-0.908,1.139-1.609c-0.398-1.043-0.682-1.754-1.453-2.583c-0.547-0.586-1.098-1.141-1.623-1.747
		c-0.549-0.631-0.91-1.329-1.682-1.688c-0.93-0.433-1.98-0.696-3.02-0.75c-1.35-0.07-2.477,0.265-3.737,0.612
		c-0.793,0.219-1.472,0.209-2.224,0.574c-1.467,0.711-2.957,1.64-3.918,3c-0.609,0.865-1.029,1.855-1.481,2.795
		c-0.603,1.252-0.688,2.183-0.688,3.583c0,0.959,0.002,1.918,0,2.877c-0.002,1.295,0.213,1.853,1.313,2.309
		C71.105-45.906,72.975-46.125,74.367-46.125z"/>
    <path fill="#FFFFFF" stroke="#000000" d="M74.117-13.75c0.381,0,1.429-0.192,1.758-0.004c0.615,0.351,0.227,2.71,0.141,3.324
		c-0.086,0.617-0.18,1.207-0.203,1.828c-0.021,0.591,0.203,1.123-0.312,1.352c-0.476,0.21-1.541,0-2.073,0
		c-0.76,0-1.537-0.039-2.291,0.011c-0.615,1.456,1.605,2.79,2.785,3.128C74.771-3.868,75.813-4,76.721-4
		c1.377,0,2.734,0.066,4.104,0.127c1.092,0.048,2.539,0.223,3.563-0.141c0.84-0.299,4.465,0.193,4.613-0.735
		c0.109-0.682-0.299-0.714-0.623-1.292C88.057-6.614,87.708-8.25,88-9.208c0.355-1.165,2.061-1.702,1.75-3.208
		c-0.285-1.391-1.928-2.451-2.001-3.937c-0.044-0.886,0.61-1.331,0.892-2.065c0.287-0.75,0.014-1.344-0.254-2.045
		c-0.398-1.043-0.681-4.212-1.451-5.041c-0.547-0.586-1.099-1.141-1.623-1.746c-0.549-0.631-0.91-1.328-1.683-1.688
		c-0.93-0.433-1.981-0.696-3.019-0.75c-1.35-0.07-2.478,0.265-3.738,0.612c-0.793,0.22-1.473,0.209-2.225,0.573
		c-1.467,0.712-2.955,1.641-3.916,3c-0.61,0.865-1.03,1.855-1.482,2.796c-0.604,1.253-0.688,2.183-0.688,3.583
		c0,0.959,0.002,1.918,0,2.877c-0.004,1.295,0.213,1.853,1.313,2.309C70.855-13.531,72.725-13.75,74.117-13.75z"/>
    <path fill="#FFFFFF" stroke="#000000" d="M10.27,28.26C9.531,28.047,8.965,27.455,8.371,27c-0.716-0.55-1.483-0.929-2.233-1.412
		c-0.495-0.318-1.167-0.867-0.939-1.533c0.396-1.158,1.686-1.229,1.559-2.672c-0.109-1.24-1.111-2.162-2.044-2.885
		c-0.548-0.426-1.586-0.956-1.467-1.832c0.14-1.025,1.626-1.933,2.403-2.416c1.282-0.799,1.034-1.753,0.194-2.779
		c-0.913-1.115-1.661-1.6-0.583-2.855c1.584-1.844,2.726-4.018,4.899-5.307C11.591,2.46,14.154,3,15.834,3
		C17.381,3,19.547,2.646,21,3.144c0.661,0.226,1.802,0.604,2.337,0.937c0.712,0.441,0.704,1.134,0.929,1.938
		c0.441,1.574,1.51,2.723,1.729,4.236c0.105,0.724,0.045,1.633,0.257,2.33c0.217,0.714,0.919,1.156,1.148,1.896
		c0.169,0.548,0.304,1.526,0.183,2.104c-0.201,0.964-0.652,0.638-1.5,0.75c-1.711,0.225-1.531,2.473-1.067,3.768
		c0.251,0.701,0.648,0.975,0.734,1.732c0.068,0.596,0.222,1.951-0.015,2.48c-0.523,1.169-2.905,2.305-3.983,2.771
		c-1.447,0.626-3.657,0.248-5.253,0.248c-1.459,0-2.919,0.008-4.378,0.002c-0.562-0.002-1.197,0.08-1.747-0.049
		C10.339,28.279,10.304,28.27,10.27,28.26z"/>
    <path fill="#FFFFFF" stroke="#000000" d="M10.27,60.26C9.531,60.047,8.965,59.455,8.371,59c-0.716-0.55-1.483-0.93-2.233-1.412
		c-0.495-0.318-1.413-2.533-1.185-3.199c0.396-1.158,1.932,0.438,1.805-1.006c-0.109-1.24-1.357-3.828-2.29-4.551
		C3.919,48.406,2.881,47.875,3,47c0.14-1.026,1.873-0.267,2.649-0.75c1.282-0.799,1.034-1.753,0.194-2.779
		c-3.095-3.782,2.144-6.873,4.316-8.162C11.591,34.46,14.154,35,15.834,35c1.547,0,3.713-0.354,5.167,0.144
		c0.661,0.226,1.802,0.604,2.337,0.937c0.712,0.441,0.704,1.134,0.929,1.938c0.441,1.574,1.51,2.723,1.729,4.236
		c0.105,0.724,0.045,1.633,0.257,2.33c0.217,0.714,1.336,3.572,1.564,4.313C27.986,49.443,28.121,50.422,28,51
		c-0.201,0.965-0.652,0.639-1.5,0.75c-1.711,0.225-1.947,0.057-1.484,1.352c0.251,0.701,0.648,0.976,0.734,1.732
		c0.068,0.596,0.222,1.951-0.015,2.48c-0.523,1.168-2.905,2.305-3.983,2.771c-1.447,0.626-3.657,0.248-5.253,0.248
		c-1.459,0-2.919,0.008-4.378,0.002c-0.562-0.002-1.197,0.08-1.747-0.049C10.339,60.279,10.304,60.27,10.27,60.26z"/>
    <path fill="#FFFFFF" stroke="#000000" d="M10.27,92.26C9.531,92.047,8.965,91.455,8.371,91C7.654,90.45,6.75,90.482,6,90
		c-0.495-0.318-0.757-2.383,1-4c0.916-0.844-1.167-2.999-2.583-1.583c-0.491,0.491-1.286-1.249-1.167-2.125
		c0.14-1.024,1.34-3.265,1.75-4.083c0.667-1.333-2.917-1.417,0.261-5.594c1.472-1.936,2.726-4.018,4.899-5.307
		C11.591,66.46,14.154,67,15.834,67c1.547,0,3.713-0.354,5.167,0.145c0.661,0.226,1.802,0.604,2.337,0.937
		c0.712,0.44,0.704,1.134,0.929,1.938c0.441,1.573,1.51,2.723,1.729,4.235c0.105,0.724,0.31,1.604,0.257,2.33
		c-0.127,1.75,0.389,1.438,1.456,0.75c0.482-0.312,0.246,3.172,0.125,3.75c-0.201,0.964-0.568,2.056-1.417,2.167
		c-1.711,0.225-0.755,1.955-0.292,3.25c0.251,0.701-0.153,2.284-0.39,2.813c-0.523,1.17-2.905,2.306-3.983,2.771
		c-1.447,0.626-3.657,0.248-5.253,0.248c-1.459,0-2.919,0.008-4.378,0.002c-0.562-0.002-1.197,0.08-1.747-0.049
		C10.339,92.279,10.304,92.27,10.27,92.26z"/>
    <g>
		<path fill="#FFFFFF" stroke="#000000" d="M54.185,61.094c0.738-0.213,1.305-0.805,1.899-1.26c0.716-0.55,1.483-0.93,2.233-1.412
			c0.495-0.318,1.413-2.533,1.185-3.199c-0.396-1.158-1.932,0.438-1.805-1.006c0.109-1.24,1.357-3.828,2.29-4.551
			c0.548-0.426,1.586-0.957,1.467-1.832c-0.14-1.026-1.873-0.267-2.649-0.75c-1.282-0.799-1.034-1.753-0.194-2.779
			c3.095-3.782-2.144-6.873-4.316-8.162c-1.431-0.849-3.994-0.309-5.674-0.309c-1.547,0-3.713-0.354-5.167,0.144
			c-0.661,0.226-1.802,0.604-2.337,0.937c-0.712,0.441-0.704,1.134-0.929,1.938c-0.441,1.574-1.51,2.723-1.729,4.236
			c-0.105,0.724-0.045,1.633-0.257,2.33c-0.217,0.714-1.336,3.572-1.564,4.313c-0.169,0.547-0.304,1.524-0.183,2.104
			c0.201,0.965,0.652,0.639,1.5,0.75c1.711,0.225,1.947,0.057,1.484,1.352c-0.251,0.701-0.648,0.976-0.734,1.732
			c-0.068,0.596-0.222,1.951,0.015,2.48c0.523,1.168,2.905,2.305,3.983,2.771c1.447,0.626,3.657,0.248,5.253,0.248
			c1.459,0,2.919,0.009,4.378,0.002c0.562-0.002,1.197,0.08,1.747-0.049C54.115,61.113,54.15,61.104,54.185,61.094z"/>
	</g>
    <g>
		<path fill="#FFFFFF" stroke="#000000" d="M54.185,93.094c0.738-0.213,1.305-0.805,1.899-1.26c0.716-0.55,1.62-0.518,2.371-1
			c0.495-0.318,0.757-2.383-1-4c-0.916-0.843,1.167-2.999,2.583-1.583c0.491,0.491,1.286-1.249,1.167-2.125
			c-0.14-1.024-1.34-3.265-1.75-4.083c-0.667-1.333,2.917-1.417-0.261-5.594c-1.472-1.936-2.726-4.018-4.899-5.307
			c-1.431-0.85-3.994-0.31-5.674-0.31c-1.547,0-3.713-0.354-5.167,0.144c-0.661,0.227-1.802,0.604-2.337,0.938
			c-0.712,0.441-0.704,1.134-0.929,1.938c-0.441,1.574-1.51,2.724-1.729,4.236c-0.105,0.725-0.31,1.604-0.257,2.33
			c0.127,1.75-0.389,1.438-1.456,0.75c-0.482-0.311-0.246,3.172-0.125,3.75c0.201,0.964,0.568,2.055,1.417,2.167
			c1.711,0.226,0.755,1.955,0.292,3.25c-0.251,0.701,0.153,2.284,0.39,2.813c0.523,1.168,2.905,2.305,3.983,2.771
			c1.447,0.626,3.657,0.248,5.253,0.248c1.459,0,2.919,0.008,4.378,0.002c0.562-0.002,1.197,0.08,1.747-0.049
			C54.115,93.113,54.15,93.104,54.185,93.094z"/>
	</g>
    <path fill="#FFFFFF" stroke="#000000" d="M53.967,29.813c0.738-0.214,1.305-0.806,1.899-1.261c0.716-0.549,1.483-0.928,2.233-1.411
		c0.495-0.318,1.167-0.868,0.939-1.533c-0.396-1.158-1.686-1.229-1.559-2.673c0.109-1.239,1.111-2.162,2.044-2.885
		c0.548-0.425,1.586-0.955,1.467-1.831c-0.14-1.026-1.626-1.933-2.403-2.417c-1.282-0.799-1.034-1.752-0.194-2.779
		c0.913-1.115,1.661-1.6,0.583-2.855c-1.584-1.843-2.726-4.018-4.899-5.307c-1.431-0.848-3.994-0.309-5.674-0.309
		c-1.547,0-3.713-0.354-5.167,0.145c-0.661,0.226-1.802,0.604-2.337,0.936c-0.712,0.441-0.704,1.135-0.929,1.938
		c-0.441,1.573-1.51,2.722-1.729,4.236c-0.105,0.724-0.045,1.632-0.257,2.329c-0.217,0.715-0.919,1.156-1.148,1.896
		c-0.169,0.547-0.304,1.525-0.183,2.104c0.201,0.965,0.652,0.639,1.5,0.75c1.711,0.225,1.531,2.473,1.067,3.769
		c-0.251,0.7-0.648,0.974-0.734,1.731c-0.068,0.597-0.222,1.952,0.015,2.48c0.523,1.17,2.905,2.305,3.983,2.771
		c1.447,0.627,3.657,0.248,5.253,0.248c1.459,0,2.919,0.008,4.378,0.002c0.563-0.002,1.197,0.081,1.747-0.048
		C53.898,29.832,53.933,29.823,53.967,29.813z"/>
    <path fill="#FFFFFF" stroke="#000000" d="M73.117,16.5c0.381,0,2.429,1.808,2.758,1.996c0.615,0.351,0.227,2.71,0.141,3.324
		c-0.086,0.617-0.18,1.207-0.203,1.828c-0.021,0.591,0.203,1.123-0.312,1.352c-0.476,0.21-1.541,0-2.073,0
		c-0.76,0-1.537-0.039-2.291,0.011c-0.615,1.456,1.605,2.79,2.785,3.128c0.85,0.243,1.893,0.111,2.799,0.111
		c1.377,0,2.734,0.066,4.104,0.127c1.092,0.048,2.539,0.223,3.563-0.141c0.84-0.299,1.649-0.768,2.453-1.125
		c0.79-0.352,1.823-0.561,1.973-1.488c0.108-0.682-0.11-1.293-0.436-1.871c-0.32-0.573-1.152-1.274-1.191-1.943
		c-0.033-0.566,0.563-1.324,0.873-1.748c0.717-0.984,2.002-1.178,1.691-2.684c-0.285-1.391-1.927-2.451-2.001-3.937
		c-0.044-0.886,0.61-1.331,0.892-2.065c0.287-0.75,0.014-1.344-0.254-2.045c-0.398-1.043-0.682-1.755-1.453-2.584
		C86.389,6.16,85.837,5.605,85.313,5c-0.549-0.631-0.91-1.328-1.683-1.688c-0.93-0.433-1.981-0.696-3.019-0.75
		c-1.35-0.07-2.478,0.265-3.738,0.612c-0.793,0.22-1.473,0.209-2.225,0.573c-1.467,0.712-2.955,1.641-3.916,3
		c-0.61,0.865-1.03,1.855-1.482,2.796c-0.604,1.253-0.688,2.183-0.688,3.583c0,0.959-0.998,1.918-1,2.877
		c-0.004,1.295,0.213-0.147,1.313,0.309C69.855,16.719,71.725,16.5,73.117,16.5z"/>
    <path fill="#FFFFFF" stroke="#000000" d="M72.367,47.875c0.381,0,3.429,1.809,3.758,1.996c0.615,0.352,0.227,2.71,0.141,3.324
		c-0.086,0.617-0.18,1.207-0.203,1.828c-0.021,0.59,0.203,1.123-0.312,1.352c-0.476,0.21-1.541,0-2.073,0
		c-0.76,0-1.537-0.039-2.291,0.012c-0.615,1.455,1.605,2.789,2.785,3.127c0.85,0.243,1.893,0.111,2.799,0.111
		c1.377,0,2.734,0.066,4.104,0.127c1.092,0.048,2.539,0.223,3.563-0.141c0.84-0.299,1.649-0.769,2.453-1.125
		c0.79-0.353,1.322-3.063,1.471-3.99c0.109-0.682-0.109-1.293-0.435-1.871c-0.321-0.572-1.153-1.273-1.19-1.943
		c-0.033-0.565,0.563-1.324,0.873-1.748c0.717-0.983,2-1.178,1.69-2.684c-0.285-1.391-1.927-2.451-2.001-3.936
		c-0.044-0.887,1.406-0.908,1.139-1.609c-0.398-1.043-0.682-1.755-1.453-2.584c-0.547-0.586-1.098-1.141-1.623-1.746
		c-0.549-0.631-0.91-1.328-1.682-1.688c-0.93-0.433-1.98-0.696-3.02-0.75c-1.35-0.07-2.477,0.265-3.737,0.612
		c-0.793,0.22-1.472,0.209-2.224,0.573c-1.467,0.712-2.957,1.641-3.918,3c-0.609,0.865-1.029,1.855-1.481,2.796
		c-0.603,1.253-0.688,2.183-0.688,3.583c0,0.959-1.608,3.595-1.61,4.554c-0.003,1.295-0.177,0.176,0.924,0.633
		C69.105,50.094,70.975,47.875,72.367,47.875z"/>
    <path fill="#FFFFFF" stroke="#000000" d="M74.117,83.25c0.381,0,1.429-0.191,1.758-0.004c0.615,0.352,0.227,1.71,0.141,2.324
		c-0.086,0.617-0.18,1.207-0.203,1.828c-0.021,0.59,0.203,1.123-0.312,1.352c-0.476,0.21-1.541,0-2.073,0
		c-0.76,0-1.537-0.039-2.291,0.012c-0.615,1.455,1.605,2.789,2.785,3.127C74.771,92.132,75.813,92,76.721,92
		c1.377,0,2.734,0.066,4.104,0.127c1.092,0.048,2.539,0.223,3.563-0.141c0.84-0.299,4.465,0.191,4.612-0.735
		c0.108-0.683-0.299-0.714-0.623-1.292c-0.321-0.572-0.669-2.209-0.377-3.167c0.354-1.165,2.06-1.702,1.75-3.208
		c-0.285-1.391-1.927-2.451-2.001-3.938c-0.044-0.885,0.611-1.33,0.893-2.064c0.287-0.75,0.014-1.344-0.256-2.045
		c-0.398-1.043-0.68-4.212-1.451-5.041c-0.547-0.586-1.098-1.141-1.623-1.746c-0.549-0.631-0.91-1.328-1.682-1.688
		c-0.93-0.434-1.98-0.696-3.02-0.75c-1.35-0.07-2.477,0.265-3.737,0.611c-0.793,0.221-1.472,0.209-2.224,0.573
		c-1.467,0.712-2.957,1.642-3.918,3c-0.609,0.864-1.029,1.854-1.481,2.796c-0.603,1.253-0.688,2.184-0.688,3.583
		c0,0.959,0.002,2.918,0,3.877c-0.002,1.295,0.213,1.853,1.313,2.31C70.855,83.469,72.725,83.25,74.117,83.25z"/>
    <path fill="#FFFFFF" stroke="#000000" d="M42.833-76.833c0.601-0.493,1.457-1.102,2.333-1.13c1.064-0.034,1.357,0.734,2.333,0.976
		c0.862,0.212,2.239,0.028,3.125-0.013c1.435-0.066,1.897-0.598,3.208-1"/>
    <path fill="#FFFFFF" stroke="#000000" d="M42.5-81.5c1.507-0.591,2.928-2.059,4.846-1.675c0.683,0.137,1.25,0.689,1.988,0.842
		c0.709,0.146,1.607,0,2.333,0"/>
    <path fill="#FFFFFF" stroke="#000000" d="M43.833-87c2.503-1.212,4.096-0.067,6.5,0"/>
    <path fill="#FFFFFF" stroke="#000000" d="M42-71.167c1.104,0.635,1.393,1.276,2.667,1.5c1.094,0.192,2.387,0,3.5,0
		c2.376,0,4.435,0.471,6-1.5"/>
    <path fill="#FFFFFF" stroke="#000000" d="M43.333-54.833c0.034-2.229,3.638-1.438,5-1.371c0.932,0.046,2.087-0.16,3,0.038
		c0.973,0.211,1.855,0.916,2.833,1.166"/>
    <path fill="#FFFFFF" stroke="#000000"
          d="M42.667-50.833c1.997,0.584,4.358,0.333,6.5,0.333c1.911,0,4.65,0.469,6.333-0.333"/>
    <path fill="#FFFFFF" stroke="#000000"
          d="M40.667-46.166c0.002,2.674,6.266,2.166,8,2.166c2.111,0,7.562,1.076,8.333-1.333"/>
    <path fill="#FFFFFF" stroke="#000000" d="M41.5-39.166c1.462,0.355,2.022,1.778,3.667,2c1.227,0.165,2.594,0,3.833,0
		c1.789,0,6.935,0.669,6.833-2.167"/>
    <path fill="#FFFFFF" stroke="#000000" d="M42.833-23.5c0.948-0.166,1.738-1.115,2.796-1.37c1.064-0.256,2.385-0.13,3.537-0.13
		c2.239,0,4.017-0.148,5.833,1"/>
    <path fill="#FFFFFF" stroke="#000000"
          d="M42.167-19c-0.191-1.647,4.643-2.441,6-2.5c2.857-0.123,5.127,0.317,7.167,2.167"/>
    <path fill="#FFFFFF" stroke="#000000"
          d="M40.953-14.816c1.649-0.554,5.178-1.578,6.889-1.688c4.075-0.26,5.449,0.864,8.986,1.953"
    />
    <path fill="#FFFFFF" stroke="#000000"
          d="M42-7.333c0.976-1.566,5.099-1.838,6.833-1.833C51.026-9.16,53.541-9.22,55.5-8.333"/>
    <path fill="#FFFFFF" stroke="#000000" d="M43.5,19.167c0.601-0.493,1.457-1.103,2.333-1.13c1.064-0.033,1.357,0.734,2.333,0.976
		c0.862,0.212,2.239,0.028,3.125-0.013c1.435-0.066,1.897-0.598,3.208-1"/>
    <path fill="#FFFFFF" stroke="#000000" d="M43.167,14.5c1.507-0.591,2.928-2.059,4.846-1.676c0.683,0.137,1.25,0.689,1.988,0.842
		c0.709,0.146,1.607,0.001,2.333,0.001"/>
    <path fill="#FFFFFF" stroke="#000000" d="M44.5,9c2.503-1.213,4.096-0.067,6.5,0"/>
    <path fill="#FFFFFF" stroke="#000000" d="M42.667,24.834c1.104,0.635,1.393,1.275,2.667,1.5c1.094,0.191,2.387,0,3.5,0
		c2.376,0,4.435,0.471,6-1.5"/>
    <path fill="#FFFFFF" stroke="#000000" d="M44,41.167c0.034-2.229,3.638-1.438,5-1.37c0.932,0.046,2.087-0.16,3,0.037
		c0.973,0.211,1.855,0.916,2.833,1.166"/>
    <path fill="#FFFFFF" stroke="#000000"
          d="M43.333,45.167c1.997,0.584,4.358,0.333,6.5,0.333c1.911,0,4.65,0.469,6.333-0.333"/>
    <path fill="#FFFFFF" stroke="#000000"
          d="M41.333,49.834c0.002,2.674,6.266,2.166,8,2.166c2.111,0,7.562,1.076,8.333-1.333"/>
    <path fill="#FFFFFF" stroke="#000000" d="M42.167,56.834c1.462,0.355,2.022,1.777,3.667,2c1.227,0.165,2.594,0,3.833,0
		c1.789,0,6.935,0.669,6.833-2.167"/>
    <path fill="#FFFFFF" stroke="#000000" d="M43.5,72.5c0.948-0.166,1.738-1.115,2.796-1.37C47.36,70.874,48.682,71,49.833,71
		c2.239,0,4.017-0.148,5.833,1"/>
    <path fill="#FFFFFF" stroke="#000000"
          d="M42.833,77c-0.191-1.646,4.643-2.441,6-2.5c2.857-0.123,5.127,0.316,7.167,2.167"/>
    <path fill="#FFFFFF" stroke="#000000"
          d="M41.62,81.184c1.649-0.554,5.178-1.578,6.889-1.688c4.075-0.26,5.449,0.863,8.986,1.953"
    />
    <path fill="#FFFFFF" stroke="#000000" d="M42.667,88.667c0.976-1.565,5.099-1.838,6.833-1.833c2.193,0.006,4.708-0.055,6.667,0.833
		"/>
    <path fill="#FFFFFF" stroke="#000000"
          d="M87.688-78.438c-2.045-1.063-0.854-1.25-1.933-0.95c-1.295,0.361-1.817,0.931-3.567,0.95"
    />
    <path fill="#FFFFFF" stroke="#000000" d="M83-81.75c0.456-0.573,1.669-0.5,2.25-0.125"/>
    <path fill="#FFFFFF" stroke="#000000" d="M82.875-85.5c0.969,0,2.355-0.292,3.125,0.375"/>
    <path fill="#FFFFFF" stroke="#000000" d="M83-73.125C83.723-72.859,84.702-73,85.5-73"/>
    <path fill="#FFFFFF" stroke="#000000" d="M86.125-56.875c-0.451-0.581-1.787-0.569-2.25,0"/>
    <path fill="#FFFFFF" stroke="#000000" d="M86.25-52.625c-1.139-0.308-2.958-1.006-4.125-0.25"/>
    <path fill="#FFFFFF" stroke="#000000" d="M86.5-47.875C84.453-48.677,82.232-48.5,80-48.5"/>
    <path fill="#FFFFFF" stroke="#000000" d="M87-40.5c-1.094-0.073-4.159,1.017-4.75-0.25"/>
    <path fill="#FFFFFF" stroke="#000000" d="M85.75-24.5c-1.218-1.02-1.753-1.37-3.375-1.375"/>
    <path fill="#FFFFFF" stroke="#000000" d="M86.625-20.125c-0.479-1.286-2.911-1.84-4.125-1.375"/>
    <path fill="#FFFFFF" stroke="#000000" d="M86.375-14.375c-0.926-1.178-2.079-1.793-3.625-1.875"/>
    <path fill="#FFFFFF" stroke="#000000" d="M86.5-6.75c-0.941-1.122-1.822-1.93-3.25-2.375"/>
    <path fill="#FFFFFF" stroke="#000000" d="M88.354,17.896c-2.045-1.063-0.854-1.251-1.933-0.95c-1.295,0.361-1.817,0.932-3.567,0.95
		"/>
    <path fill="#FFFFFF" stroke="#000000" d="M83.667,14.583c0.456-0.573,1.669-0.499,2.25-0.125"/>
    <path fill="#FFFFFF" stroke="#000000" d="M83.542,10.833c0.97,0,2.356-0.292,3.125,0.375"/>
    <path fill="#FFFFFF" stroke="#000000" d="M83.667,23.208c0.722,0.266,1.702,0.125,2.5,0.125"/>
    <path fill="#FFFFFF" stroke="#000000" d="M86.792,39.458c-0.451-0.581-1.787-0.569-2.25,0"/>
    <path fill="#FFFFFF" stroke="#000000" d="M86.917,43.708c-1.138-0.308-2.958-1.007-4.125-0.25"/>
    <path fill="#FFFFFF" stroke="#000000" d="M87.167,48.458c-2.047-0.802-4.269-0.625-6.5-0.625"/>
    <path fill="#FFFFFF" stroke="#000000" d="M87.667,55.833c-1.095-0.073-4.159,1.017-4.75-0.25"/>
    <path fill="#FFFFFF" stroke="#000000" d="M86.417,71.833c-1.218-1.021-1.753-1.37-3.375-1.375"/>
    <path fill="#FFFFFF" stroke="#000000" d="M87.292,76.208c-0.479-1.286-2.911-1.84-4.125-1.375"/>
    <path fill="#FFFFFF" stroke="#000000" d="M87.042,81.958c-0.926-1.179-2.079-1.793-3.625-1.875"/>
    <path fill="#FFFFFF" stroke="#000000" d="M87.167,89.583c-0.94-1.122-1.821-1.931-3.25-2.375"/>
    <path fill="#FFFFFF" stroke="#000000" d="M22.125-79c1.085-1.273,1.891-0.773,3.375-0.875"/>
    <path fill="#FFFFFF" stroke="#000000" d="M5-79.625c0.854,0.15,2.337,0.359,2.125,1.625"/>
    <path fill="#FFFFFF" stroke="#000000" d="M10.875-90.375c1.988-0.167,3.485-1.345,5.655-1.25c0.875,0.039,1.986-0.065,2.844,0.119
		c0.833,0.178,1.418,0.795,2.25,1.006"/>
    <path fill="#FFFFFF" stroke="#000000" d="M5.75-48c0.621,0.633,0.998,1.456,1.375,2.25"/>
    <path fill="#FFFFFF" stroke="#000000" d="M26-45.5c0.069-0.483-0.806-1.486-1.25-1.875"/>
    <path fill="#FFFFFF" stroke="#000000" d="M10.25-57.875c0.821-1.848,8.289-1.18,10-0.75"/>
    <path fill="#FFFFFF" stroke="#000000" d="M12-56.375c2.41,0,4.68-0.358,7-0.375"/>
    <path fill="#FFFFFF" stroke="#000000" d="M12.25-26.25c0.687,0.01,1.208-0.405,1.875-0.5c0.637-0.091,1.356,0,2,0
		c1.479,0,2.783,0.251,4.25,0.25"/>
    <path fill="#FFFFFF" stroke="#000000" d="M14.5-24.125c0.292,0,1.458,0,1.75,0"/>
    <path fill="#FFFFFF" stroke="#000000" d="M25.75-14.625c-0.082-0.753,0.387-1.51,0.5-2.25"/>
    <path fill="#FFFFFF" stroke="#000000" d="M4.75-13.125c0.938-0.742,1.277-1.478,1.75-2.5"/>
    <path fill="#FFFFFF" stroke="#000000" d="M22.083,16.583c1.085-1.273,2.417-1.25,4-0.666"/>
    <path fill="#FFFFFF" stroke="#000000" d="M4.708,16.458c0.854,0.15,1.708,1.375,2.792,0.959"/>
    <path fill="#FFFFFF" stroke="#000000" d="M11.083,6.709c1.988-0.166,3.485-1.346,5.655-1.25c0.875,0.039,1.986-0.065,2.844,0.119
		c0.833,0.178,1.418,0.795,2.25,1.006"/>
    <path fill="#FFFFFF" stroke="#000000" d="M5.417,47.75c0.85,0.867,2.12,1.457,2.417,2.083"/>
    <path fill="#FFFFFF" stroke="#000000" d="M26.25,50.333c-0.042-1.501-0.639-2.194-1.083-2.583"/>
    <path fill="#FFFFFF" stroke="#000000" d="M10,37.167c1.417,1.167,9.25,1.25,11.333,0.333"/>
    <path fill="#FFFFFF" stroke="#000000" d="M12.208,40.709c2.292,1.291,5.292,1.124,7-0.375"/>
    <path fill="#FFFFFF" stroke="#000000" d="M10.917,70.25c2.25-1.917,7.25-1.75,9.667,0.334"/>
    <path fill="#FFFFFF" stroke="#000000" d="M13,71.667c0.542,1.041,5.083,1.166,5.5,0"/>
    <path fill="#FFFFFF" stroke="#000000" d="M25.75,82.167c-0.082-0.753,0.554-2.177,0.667-2.917"/>
    <path fill="#FFFFFF" stroke="#000000" d="M4.667,82.583c0.938-0.742,1.444-1.478,1.917-2.5"/>
    <path fill="#FFFFFF" stroke="#000000" d="M116.137-77.271c-0.381,0-1.429-0.192-1.758-0.004c-0.615,0.351-0.227,2.71-0.141,3.325
		c0.086,0.618,0.18,1.207,0.203,1.828c0.021,0.591-0.203,1.124,0.312,1.352c0.476,0.21,1.541,0,2.073,0
		c0.76,0,1.537-0.039,2.292,0.011c0.614,1.457-1.606,2.791-2.786,3.128c-0.85,0.243-1.893,0.111-2.798,0.111
		c-1.377,0-2.735,0.066-4.104,0.126c-1.092,0.048-2.539,0.223-3.563-0.141c-0.84-0.298-1.649-0.767-2.453-1.125
		c-0.79-0.352-1.823-0.561-1.973-1.488c-0.108-0.683,0.11-1.294,0.436-1.872c0.32-0.573,1.152-1.274,1.191-1.942
		c0.033-0.566-0.563-1.324-0.873-1.749c-0.717-0.984-2.002-1.178-1.691-2.684c0.285-1.39,1.928-2.451,2.001-3.936
		c0.044-0.886-0.61-1.332-0.892-2.065c-0.287-0.75-0.014-1.344,0.255-2.045c0.397-1.043,0.681-1.754,1.452-2.583
		c0.547-0.586,1.098-1.141,1.623-1.747c0.549-0.631,0.91-1.329,1.682-1.688c0.93-0.433,1.98-0.696,3.02-0.75
		c1.35-0.07,2.477,0.265,3.737,0.612c0.793,0.219,1.472,0.209,2.224,0.574c1.467,0.711,2.957,1.64,3.918,3
		c0.609,0.865,1.029,1.855,1.481,2.795c0.603,1.252,0.688,2.183,0.688,3.583c0,0.959-0.002,1.918,0,2.877
		c0.002,1.295-0.213,1.853-1.313,2.309C119.398-77.051,117.529-77.271,116.137-77.271z"/>
    <path fill="#FFFFFF" stroke="#000000" d="M115.887-45.896c-0.381,0-1.429-0.192-1.758-0.004c-0.615,0.351-0.227,2.71-0.141,3.324
		c0.086,0.617,0.18,1.207,0.203,1.828c0.021,0.591-0.203,1.123,0.312,1.352c0.476,0.21,1.541,0,2.073,0
		c0.76,0,1.537-0.039,2.292,0.011c0.614,1.456-1.606,2.79-2.786,3.128c-0.85,0.243-1.893,0.111-2.798,0.111
		c-1.377,0-2.735,0.066-4.104,0.127c-1.092,0.048-2.539,0.223-3.563-0.141c-0.84-0.299-1.649-0.768-2.453-1.125
		c-0.79-0.352-1.322-3.063-1.471-3.99c-0.109-0.682,0.109-1.293,0.435-1.871c0.321-0.572,1.153-1.273,1.19-1.943
		c0.033-0.566-0.563-1.324-0.873-1.748c-0.717-0.984-2-1.177-1.69-2.684c0.285-1.39,1.927-2.451,2.001-3.936
		c0.044-0.886-1.406-0.908-1.138-1.609c0.397-1.043,0.681-1.754,1.452-2.583c0.547-0.586,1.098-1.141,1.623-1.747
		c0.549-0.631,0.91-1.329,1.682-1.688c0.93-0.433,1.98-0.696,3.02-0.75c1.35-0.07,2.477,0.265,3.737,0.612
		c0.793,0.219,1.472,0.209,2.224,0.574c1.467,0.711,2.957,1.64,3.918,3c0.609,0.865,1.029,1.855,1.481,2.795
		c0.603,1.252,0.688,2.183,0.688,3.583c0,0.959-0.002,1.918,0,2.877c0.002,1.295-0.213,1.853-1.313,2.309
		C119.148-45.677,117.279-45.896,115.887-45.896z"/>
    <path fill="#FFFFFF" stroke="#000000" d="M116.137-13.521c-0.381,0-1.429-0.192-1.758-0.004c-0.615,0.351-0.227,2.71-0.141,3.324
		c0.086,0.617,0.18,1.207,0.203,1.828c0.021,0.591-0.203,1.123,0.312,1.352c0.476,0.21,1.541,0,2.073,0
		c0.76,0,1.537-0.039,2.292,0.011c0.614,1.456-1.606,2.79-2.786,3.128c-0.85,0.243-1.893,0.111-2.798,0.111
		c-1.377,0-2.735,0.066-4.104,0.127c-1.092,0.048-2.539,0.223-3.563-0.141c-0.84-0.299-4.465,0.192-4.612-0.735
		c-0.108-0.682,0.3-0.714,0.623-1.292c0.321-0.573,0.669-2.209,0.377-3.167c-0.354-1.165-2.06-1.702-1.75-3.208
		c0.285-1.391,1.927-2.451,2.001-3.937c0.044-0.886-0.611-1.331-0.893-2.065c-0.286-0.75-0.014-1.344,0.256-2.045
		c0.398-1.043,0.68-4.212,1.451-5.041c0.547-0.586,1.098-1.141,1.623-1.746c0.549-0.631,0.91-1.328,1.682-1.688
		c0.93-0.433,1.98-0.696,3.02-0.75c1.35-0.07,2.477,0.265,3.737,0.612c0.793,0.22,1.472,0.209,2.224,0.573
		c1.467,0.712,2.957,1.641,3.918,3c0.609,0.865,1.029,1.855,1.481,2.796c0.603,1.253,0.688,2.183,0.688,3.583
		c0,0.959-0.002,1.918,0,2.877c0.002,1.295-0.213,1.853-1.313,2.309C119.398-13.302,117.529-13.521,116.137-13.521z"/>
    <path fill="#FFFFFF" stroke="#000000"
          d="M102.566-78.208c2.045-1.063,0.854-1.25,1.933-0.95c1.295,0.361,1.817,0.931,3.567,0.95"
    />
    <path fill="#FFFFFF" stroke="#000000" d="M107.254-81.521c-0.456-0.573-1.669-0.5-2.25-0.125"/>
    <path fill="#FFFFFF" stroke="#000000" d="M107.379-85.271c-0.969,0-2.355-0.292-3.125,0.375"/>
    <path fill="#FFFFFF" stroke="#000000" d="M107.254-72.896c-0.722,0.266-1.701,0.125-2.5,0.125"/>
    <path fill="#FFFFFF" stroke="#000000" d="M104.129-56.646c0.451-0.581,1.787-0.569,2.25,0"/>
    <path fill="#FFFFFF" stroke="#000000" d="M104.004-52.396c1.139-0.308,2.958-1.006,4.125-0.25"/>
    <path fill="#FFFFFF" stroke="#000000" d="M103.754-47.646c2.047-0.802,4.268-0.625,6.5-0.625"/>
    <path fill="#FFFFFF" stroke="#000000" d="M103.254-40.271c1.094-0.073,4.159,1.017,4.75-0.25"/>
    <path fill="#FFFFFF" stroke="#000000" d="M104.504-24.271c1.219-1.02,1.753-1.37,3.375-1.375"/>
    <path fill="#FFFFFF" stroke="#000000" d="M103.629-19.896c0.479-1.286,2.911-1.84,4.125-1.375"/>
    <path fill="#FFFFFF" stroke="#000000" d="M103.879-14.146c0.926-1.178,2.079-1.793,3.625-1.875"/>
    <path fill="#FFFFFF" stroke="#000000" d="M103.754-6.521c0.941-1.122,1.822-1.93,3.25-2.375"/>
    <path fill="#FFFFFF" stroke="#000000" d="M117.121,16.877c-0.381,0-2.43,1.808-2.758,1.996c-0.615,0.351-0.227,2.71-0.141,3.324
		c0.086,0.617,0.18,1.207,0.202,1.828c0.022,0.591-0.202,1.123,0.312,1.352c0.476,0.21,1.541,0,2.074,0
		c0.76,0,1.537-0.039,2.291,0.011c0.614,1.456-1.605,2.79-2.785,3.128c-0.851,0.243-1.893,0.111-2.799,0.111
		c-1.377,0-2.734,0.066-4.104,0.127c-1.092,0.048-2.54,0.223-3.563-0.141c-0.84-0.299-1.649-0.768-2.453-1.125
		c-0.791-0.352-1.823-0.561-1.973-1.488c-0.109-0.682,0.11-1.293,0.436-1.871c0.32-0.573,1.152-1.274,1.191-1.943
		c0.032-0.566-0.564-1.324-0.873-1.748c-0.718-0.984-2.002-1.178-1.691-2.684c0.285-1.391,1.927-2.451,2-3.937
		c0.045-0.886-0.61-1.331-0.891-2.065c-0.287-0.75-0.015-1.344,0.254-2.045c0.398-1.043,0.682-1.755,1.453-2.584
		c0.547-0.586,1.098-1.141,1.623-1.746c0.549-0.631,0.909-1.328,1.682-1.688c0.93-0.433,1.98-0.696,3.019-0.75
		c1.351-0.07,2.478,0.265,3.738,0.612c0.793,0.22,1.472,0.209,2.224,0.573c1.467,0.712,2.956,1.641,3.917,3
		c0.61,0.865,1.03,1.855,1.481,2.796c0.604,1.253,0.689,2.183,0.689,3.583c0,0.959,0.997,1.918,1,2.877
		c0.002,1.295-0.214-0.147-1.314,0.309C120.383,17.096,118.514,16.877,117.121,16.877z"/>
    <path fill="#FFFFFF" stroke="#000000" d="M117.871,48.252c-0.381,0-3.43,1.809-3.758,1.996c-0.615,0.352-0.227,2.71-0.141,3.324
		c0.086,0.617,0.18,1.207,0.202,1.828c0.022,0.591-0.202,1.123,0.312,1.352c0.476,0.21,1.541,0,2.074,0
		c0.76,0,1.537-0.039,2.291,0.012c0.614,1.455-1.605,2.789-2.785,3.127c-0.851,0.243-1.893,0.111-2.799,0.111
		c-1.377,0-2.734,0.066-4.104,0.127c-1.092,0.049-2.54,0.223-3.563-0.141c-0.84-0.299-1.649-0.768-2.453-1.125
		c-0.791-0.352-1.322-3.063-1.471-3.99c-0.109-0.682,0.109-1.293,0.434-1.871c0.322-0.572,1.154-1.273,1.191-1.943
		c0.033-0.565-0.563-1.324-0.873-1.748c-0.717-0.983-2-1.178-1.691-2.684c0.285-1.391,1.928-2.451,2.002-3.936
		c0.044-0.887-1.406-0.908-1.139-1.609c0.398-1.043,0.682-1.755,1.453-2.584c0.547-0.586,1.098-1.141,1.623-1.746
		c0.549-0.631,0.909-1.328,1.682-1.688c0.93-0.433,1.98-0.696,3.019-0.75c1.351-0.07,2.478,0.265,3.738,0.612
		c0.793,0.22,1.472,0.209,2.224,0.573c1.467,0.712,2.956,1.641,3.917,3c0.61,0.865,1.03,1.855,1.481,2.796
		c0.604,1.253,0.689,2.183,0.689,3.583c0,0.959,1.608,3.595,1.61,4.554c0.003,1.295,0.176,0.176-0.925,0.633
		C121.133,50.471,119.264,48.252,117.871,48.252z"/>
    <path fill="#FFFFFF" stroke="#000000" d="M116.121,83.627c-0.381,0-1.43-0.191-1.758-0.004c-0.615,0.352-0.227,1.71-0.141,2.324
		c0.086,0.617,0.18,1.207,0.202,1.828c0.022,0.591-0.202,1.123,0.312,1.352c0.476,0.21,1.541,0,2.074,0
		c0.76,0,1.537-0.039,2.291,0.012c0.614,1.455-1.605,2.789-2.785,3.127c-0.851,0.243-1.893,0.111-2.799,0.111
		c-1.377,0-2.734,0.066-4.104,0.127c-1.092,0.049-2.54,0.223-3.563-0.141c-0.84-0.299-4.465,0.191-4.613-0.735
		c-0.108-0.683,0.3-0.714,0.623-1.292c0.322-0.572,0.67-2.209,0.377-3.167c-0.354-1.165-2.059-1.702-1.75-3.208
		c0.285-1.391,1.928-2.451,2.002-3.938c0.044-0.885-0.611-1.33-0.893-2.064c-0.287-0.75-0.014-1.344,0.256-2.045
		c0.397-1.043,0.68-4.212,1.451-5.041c0.547-0.586,1.098-1.141,1.623-1.746c0.549-0.631,0.909-1.328,1.682-1.688
		c0.93-0.434,1.98-0.696,3.019-0.75c1.351-0.07,2.478,0.265,3.738,0.611c0.793,0.221,1.472,0.209,2.224,0.573
		c1.467,0.712,2.956,1.642,3.917,3c0.61,0.864,1.03,1.854,1.481,2.796c0.604,1.253,0.689,2.184,0.689,3.583
		c0,0.959-0.003,2.918,0,3.877c0.002,1.295-0.214,1.853-1.314,2.31C119.383,83.846,117.514,83.627,116.121,83.627z"/>
    <path fill="#FFFFFF" stroke="#000000"
          d="M103.232,18.125c2.045-1.063,0.854-1.25,1.934-0.95c1.295,0.361,1.816,0.931,3.566,0.95"
    />
    <path fill="#FFFFFF" stroke="#000000" d="M107.921,14.813c-0.456-0.572-1.669-0.5-2.25-0.125"/>
    <path fill="#FFFFFF" stroke="#000000" d="M108.046,11.063c-0.969,0-2.356-0.293-3.125,0.375"/>
    <path fill="#FFFFFF" stroke="#000000" d="M107.921,23.438c-0.722,0.266-1.702,0.125-2.5,0.125"/>
    <path fill="#FFFFFF" stroke="#000000" d="M104.796,39.688c0.451-0.58,1.787-0.568,2.25,0"/>
    <path fill="#FFFFFF" stroke="#000000" d="M104.671,43.938c1.138-0.309,2.958-1.006,4.125-0.25"/>
    <path fill="#FFFFFF" stroke="#000000" d="M104.421,48.688c2.047-0.801,4.269-0.625,6.5-0.625"/>
    <path fill="#FFFFFF" stroke="#000000" d="M103.921,56.063c1.095-0.072,4.159,1.018,4.75-0.25"/>
    <path fill="#FFFFFF" stroke="#000000" d="M105.171,72.063c1.218-1.02,1.753-1.369,3.375-1.375"/>
    <path fill="#FFFFFF" stroke="#000000" d="M104.296,76.438c0.479-1.285,2.911-1.84,4.125-1.375"/>
    <path fill="#FFFFFF" stroke="#000000" d="M104.546,82.188c0.927-1.178,2.079-1.793,3.625-1.875"/>
    <path fill="#FFFFFF" stroke="#000000" d="M104.421,89.813c0.94-1.121,1.822-1.93,3.25-2.375"/>
</g>
    <g id="Layer_1">
	<g id="Picker">
		<rect x="-27.54" y="-92.833" fill="#4561AC" stroke="#20439B" width="15" height="10"/>
        <rect x="-27.54" y="-77.519" fill="#FEDE2F" stroke="#F9A250" width="15" height="10"/>
        <rect x="-27.54" y="-62.204" fill="#ED1E24" stroke="#781E15" width="15" height="10"/>
        <rect x="-27.54" y="-46.89" fill="#2DB34B" stroke="#00421C" width="15" height="10"/>
        <rect x="-27.54" y="-28" fill="#FFFFFF" stroke="#000000" width="15" height="10"/>
	</g>
        <g id="Detalles">
		<g>
			<polygon fill="#FFFFFF" points="12.074,88.445 9.601,86.794 11.206,85.602 			"/>
            <polygon fill="#FFFFFF" points="13.354,88.126 12.32,85.458 14.25,85.434 			"/>
            <polygon fill="#FFFFFF" points="15.658,88.244 14.667,85.439 16.666,85.445 			"/>
            <polygon fill="#FFFFFF" points="17.938,88.104 17.434,85.432 19.259,85.473 			"/>
            <polygon fill="#FFFFFF" points="19.667,88.725 19.898,85.76 21.724,86.576 			"/>
		</g>
            <g>
			<polygon fill="#FFFFFF" points="13.201,87.297 11.25,88.509 12.516,89.385 			"/>
                <polygon fill="#FFFFFF" points="14.747,87.727 13.408,89.518 14.931,89.902 			"/>
                <polygon fill="#FFFFFF" points="16.107,87.92 15.325,89.977 16.902,89.973 			"/>
                <polygon fill="#FFFFFF" points="17.247,87.826 17.429,90.002 18.868,89.402 			"/>
                <polygon fill="#FFFFFF" points="19.19,87.092 19.373,89.268 20.813,88.668 			"/>
		</g>
            <path fill="none" stroke="#000000" stroke-linecap="round" d="M9.438,86.5c1.25-1.344,3.781-1.047,6.328-1.047
			s5.109-0.297,6.422,1.172"/>
            <path fill="none" stroke="#000000" stroke-linecap="round"
                  d="M11.375,88.391c1.838,2.688,7.445,2.813,9.375-0.125"/>
            <g>
			<polygon fill="#FFFFFF" points="11.708,54.383 8.992,52.568 10.754,51.262 			"/>
                <polygon fill="#FFFFFF" points="13.381,55.891 12.094,51.531 14.603,52.035 			"/>
                <polygon fill="#FFFFFF" points="15.968,55.561 14.679,51.915 17.278,51.922 			"/>
                <polygon fill="#FFFFFF" points="18.276,55.479 17.498,51.624 19.872,51.502 			"/>
                <polygon fill="#FFFFFF" points="20.045,54.689 20.299,51.434 22.303,52.331 			"/>
		</g>
            <g>
			<polygon fill="#FFFFFF" points="13.201,55.297 11.25,56.509 12.516,57.385 			"/>
                <polygon fill="#FFFFFF" points="14.747,55.727 13.408,57.518 14.931,57.902 			"/>
                <polygon fill="#FFFFFF" points="16.107,55.92 15.325,57.977 16.902,57.973 			"/>
                <polygon fill="#FFFFFF" points="17.247,55.826 17.429,58.002 18.868,57.402 			"/>
                <polygon fill="#FFFFFF" points="19.19,55.092 19.373,57.268 20.813,56.668 			"/>
		</g>
            <path fill="none" stroke="#000000" stroke-linecap="round" d="M8.813,52.247C10.185,50.771,12.965,52,15.761,52
			c2.796,0,5.61-1.229,7.051,0.385"/>
            <path fill="none" stroke="#000000" stroke-linecap="round"
                  d="M11.375,56.391c1.838,2.688,7.445,2.813,9.375-0.125"/>
            <g>
			<polygon fill="#FFFFFF" points="13.071,22.291 11.031,23.921 12.355,25.099 			"/>
                <polygon fill="#FFFFFF" points="14.688,22.868 13.288,25.276 14.88,25.794 			"/>
                <polygon fill="#FFFFFF" points="16.11,23.128 15.292,25.895 16.942,25.89 			"/>
                <polygon fill="#FFFFFF" points="17.302,23.003 17.493,25.929 18.998,25.122 			"/>
                <polygon fill="#FFFFFF" points="19.334,22.016 19.525,24.941 21.031,24.134 			"/>
		</g>
            <g>
			<g>
				<polygon fill="#FFFFFF" points="11.415,21.67 8.505,19.727 10.393,18.325 				"/>
                <polygon fill="#FFFFFF" points="13.72,20.982 11.724,18.11 13.995,17.495 				"/>
                <polygon fill="#FFFFFF" points="15.749,20.672 14.582,17.374 16.934,17.38 				"/>
                <polygon fill="#FFFFFF" points="17.448,20.822 17.72,17.334 19.868,18.296 				"/>
                <polygon fill="#FFFFFF" points="20.347,22 20.619,18.51 22.766,19.472 				"/>
			</g>
                <path fill="none" stroke="#000000" stroke-linecap="round"
                      d="M8.313,19.382c2.941-3.162,11.912-3.309,15,0.147"/>
		</g>
            <path fill="none" stroke="#000000" stroke-linecap="round"
                  d="M11.162,23.761c1.922,3.614,7.785,3.782,9.804-0.167"/>
            <g>
			<g>
				<polygon fill="#FFFFFF" points="12.074,-8.555 9.601,-10.206 11.206,-11.398 				"/>
                <polygon fill="#FFFFFF" points="14.034,-9.14 12.337,-11.581 14.267,-12.104 				"/>
                <polygon fill="#FFFFFF" points="15.758,-9.403 14.767,-12.207 16.766,-12.201 				"/>
                <polygon fill="#FFFFFF" points="17.203,-9.275 17.434,-12.24 19.259,-11.424 				"/>
                <polygon fill="#FFFFFF" points="19.667,-8.275 19.898,-11.24 21.724,-10.424 				"/>
			</g>
                <path fill="none" stroke="#000000" stroke-linecap="round"
                      d="M9.438-10.5c2.5-2.688,10.125-2.813,12.75,0.125"/>
		</g>
            <g>
			<g>
				<polygon fill="#FFFFFF" points="13.201,-8.703 11.25,-7.491 12.516,-6.615 				"/>
                <polygon fill="#FFFFFF" points="14.747,-8.273 13.408,-6.482 14.931,-6.098 				"/>
                <polygon fill="#FFFFFF" points="16.107,-8.08 15.325,-6.023 16.902,-6.027 				"/>
                <polygon fill="#FFFFFF" points="17.247,-8.174 17.429,-5.998 18.868,-6.598 				"/>
                <polygon fill="#FFFFFF" points="19.19,-8.908 19.373,-6.732 20.813,-7.332 				"/>
			</g>
                <path fill="none" stroke="#000000" stroke-linecap="round"
                      d="M11.375-7.609c1.838,2.688,7.445,2.813,9.375-0.125"/>
		</g>
            <g>
			<polygon fill="#FFFFFF" points="12.074,-40.555 9.601,-42.206 11.206,-43.398 			"/>
                <polygon fill="#FFFFFF" points="14.034,-41.14 12.337,-43.581 14.267,-44.104 			"/>
                <polygon fill="#FFFFFF" points="15.758,-41.403 14.767,-44.207 16.766,-44.201 			"/>
                <polygon fill="#FFFFFF" points="17.203,-41.275 17.434,-44.24 19.259,-43.424 			"/>
                <polygon fill="#FFFFFF" points="19.667,-40.275 19.898,-43.24 21.724,-42.424 			"/>
		</g>
            <g>
			<polygon fill="#FFFFFF" points="13.201,-40.703 11.25,-39.491 12.516,-38.615 			"/>
                <polygon fill="#FFFFFF" points="14.747,-40.273 13.408,-38.482 14.931,-38.098 			"/>
                <polygon fill="#FFFFFF" points="16.107,-40.08 15.325,-38.023 16.902,-38.027 			"/>
                <polygon fill="#FFFFFF" points="17.247,-40.174 17.429,-37.998 18.868,-38.598 			"/>
                <polygon fill="#FFFFFF" points="19.19,-40.908 19.373,-38.732 20.813,-39.332 			"/>
		</g>
            <path fill="none" stroke="#000000" stroke-linecap="round"
                  d="M9.438-42.5c2.5-2.688,10.125-2.813,12.75,0.125"/>
            <path fill="none" stroke="#000000" stroke-linecap="round"
                  d="M11.375-39.609c1.838,2.688,7.445,2.813,9.375-0.125"/>
            <g>
			<g>
				<polygon fill="#FFFFFF" points="12.074,-72.555 9.601,-74.206 11.206,-75.399 				"/>
                <polygon fill="#FFFFFF" points="14.034,-73.14 12.337,-75.581 14.267,-76.104 				"/>
                <polygon fill="#FFFFFF" points="15.758,-73.403 14.767,-76.207 16.766,-76.201 				"/>
                <polygon fill="#FFFFFF" points="17.203,-73.275 17.434,-76.24 19.259,-75.423 				"/>
                <polygon fill="#FFFFFF" points="19.667,-72.275 19.898,-75.24 21.724,-74.423 				"/>
			</g>
                <path fill="none" stroke="#000000" stroke-linecap="round"
                      d="M9.438-74.5c2.5-2.688,10.125-2.813,12.75,0.125"/>
		</g>
            <g>
			<g>
				<polygon fill="#FFFFFF" points="13.201,-72.703 11.25,-71.491 12.516,-70.616 				"/>
                <polygon fill="#FFFFFF" points="14.747,-72.274 13.408,-70.482 14.931,-70.098 				"/>
                <polygon fill="#FFFFFF" points="16.107,-72.08 15.325,-70.023 16.902,-70.027 				"/>
                <polygon fill="#FFFFFF" points="17.247,-72.174 17.429,-69.998 18.868,-70.598 				"/>
                <polygon fill="#FFFFFF" points="19.19,-72.908 19.373,-70.732 20.813,-71.332 				"/>
			</g>
                <path fill="none" stroke="#000000" stroke-linecap="round"
                      d="M11.375-71.609c1.838,2.688,7.445,2.813,9.375-0.125"/>
		</g>
            <g>
			<g>
				<g>
					<polygon fill="#FFFFFF" points="14.596,-81.95 7.313,-81.95 7.313,-87.777 					"/>
                    <path d="M7.063-88.295l8.245,6.596H7.063V-88.295 M7.563-87.254v5.055h6.319L7.563-87.254L7.563-87.254z"/>
				</g>
                <line fill="none" stroke="#000000" stroke-linecap="round" x1="10.36" y1="-84.997" x2="10.36"
                      y2="-83.21"/>
			</g>
                <g>
				<g>
					<polygon fill="#FFFFFF" points="24.187,-81.954 16.904,-81.954 24.187,-87.783 					"/>
                    <path d="M24.438-88.301v6.596h-8.245L24.438-88.301 M23.938-87.26l-6.319,5.055h6.319V-87.26L23.938-87.26z"/>
				</g>
                    <line fill="none" stroke="#000000" stroke-linecap="round" x1="21.14" y1="-85.003" x2="21.14"
                          y2="-83.217"/>
			</g>
		</g>
            <polygon fill="#FFFFFF" stroke="#000000" stroke-width="0.5"
                     points="77.959,-89.833 71.209,-84.208 77.959,-84.208 		"/>
            <polygon fill="#FFFFFF" stroke="#000000" stroke-width="0.5"
                     points="78.209,-58.458 71.459,-52.833 78.209,-52.833 		"/>
            <polygon fill="#FFFFFF" stroke="#000000" stroke-width="0.5"
                     points="77.959,-26.084 71.209,-20.459 77.959,-20.459 		"/>
            <g>
			<g>
				<g>
					<polygon fill="#FFFFFF" points="14.596,-49.95 7.313,-49.95 7.313,-55.777 					"/>
                    <path d="M7.063-56.295l8.245,6.596H7.063V-56.295 M7.563-55.254v5.055h6.319L7.563-55.254L7.563-55.254z"/>
				</g>
                <line fill="none" stroke="#000000" stroke-linecap="round" x1="10.36" y1="-52.997" x2="10.36"
                      y2="-51.21"/>
			</g>
                <g>
				<g>
					<polygon fill="#FFFFFF" points="24.187,-49.954 16.904,-49.954 24.187,-55.783 					"/>
                    <path d="M24.438-56.301v6.596h-8.245L24.438-56.301 M23.938-55.26l-6.319,5.055h6.319V-55.26L23.938-55.26z"/>
				</g>
                    <line fill="none" stroke="#000000" stroke-linecap="round" x1="21.14" y1="-53.003" x2="21.14"
                          y2="-51.217"/>
			</g>
		</g>
            <g>
			<g>
				<g>
					<polygon fill="#FFFFFF" points="14.762,-18.283 7.479,-18.283 7.479,-24.109 					"/>
                    <path d="M7.229-24.628l8.245,6.596H7.229V-24.628 M7.729-23.588v5.056h6.319L7.729-23.588L7.729-23.588z"/>
				</g>
                <line fill="none" stroke="#000000" stroke-linecap="round" x1="10.527" y1="-21.33" x2="10.527"
                      y2="-19.543"/>
			</g>
                <g>
				<g>
					<polygon fill="#FFFFFF" points="24.353,-18.287 17.07,-18.287 24.353,-24.116 					"/>
                    <path d="M24.604-24.634v6.596h-8.245L24.604-24.634 M24.104-23.594l-6.319,5.056h6.319V-23.594L24.104-23.594z"/>
				</g>
                    <line fill="none" stroke="#000000" stroke-linecap="round" x1="21.306" y1="-21.336" x2="21.306"
                          y2="-19.55"/>
			</g>
		</g>
            <g>
			<g>
				<g>
					<polygon fill="#FFFFFF" points="14.596,14.051 7.313,14.051 7.313,8.223 					"/>
                    <path d="M7.063,7.705l8.245,6.596H7.063V7.705 M7.563,8.746v5.055h6.319L7.563,8.746L7.563,8.746z"/>
				</g>
                <line fill="none" stroke="#000000" stroke-linecap="round" x1="10.36" y1="11.003" x2="10.36"
                      y2="12.789"/>
			</g>
                <g>
				<g>
					<polygon fill="#FFFFFF" points="24.187,14.046 16.904,14.046 24.187,8.217 					"/>
                    <path d="M24.438,7.699v6.596h-8.245L24.438,7.699 M23.938,8.74l-6.319,5.055h6.319V8.74L23.938,8.74z"/>
				</g>
                    <line fill="none" stroke="#000000" stroke-linecap="round" x1="21.14" y1="10.997" x2="21.14"
                          y2="12.783"/>
			</g>
		</g>
            <polygon fill="#FFFFFF" stroke="#000000" stroke-width="0.5"
                     points="77.959,6.166 71.209,11.791 77.959,11.791 		"/>
            <polygon fill="#FFFFFF" stroke="#000000" stroke-width="0.5"
                     points="78.209,37.541 71.459,43.166 78.209,43.166 		"/>
            <polygon fill="#FFFFFF" stroke="#000000" stroke-width="0.5"
                     points="77.959,69.916 71.209,75.541 77.959,75.541 		"/>
            <g>
			<g>
				<g>
					<polygon fill="#FFFFFF" points="14.596,46.051 7.313,46.051 7.313,40.223 					"/>
                    <path d="M7.063,39.705l8.245,6.596H7.063V39.705 M7.563,40.746v5.055h6.319L7.563,40.746L7.563,40.746z"/>
				</g>
                <line fill="none" stroke="#000000" stroke-linecap="round" x1="10.36" y1="43.003" x2="10.36"
                      y2="44.789"/>
			</g>
                <g>
				<g>
					<polygon fill="#FFFFFF" points="24.187,46.046 16.904,46.046 24.187,40.217 					"/>
                    <path d="M24.438,39.699v6.596h-8.245L24.438,39.699 M23.938,40.74l-6.319,5.055h6.319V40.74L23.938,40.74z"/>
				</g>
                    <line fill="none" stroke="#000000" stroke-linecap="round" x1="21.14" y1="42.997" x2="21.14"
                          y2="44.783"/>
			</g>
		</g>
            <g>
			<g>
				<g>
					<polygon fill="#FFFFFF" points="14.762,77.717 7.479,77.717 7.479,71.891 					"/>
                    <path d="M7.229,71.372l8.245,6.597H7.229V71.372 M7.729,72.412v5.057h6.319L7.729,72.412L7.729,72.412z"/>
				</g>
                <line fill="none" stroke="#000000" stroke-linecap="round" x1="10.527" y1="74.67" x2="10.527"
                      y2="76.457"/>
			</g>
                <g>
				<g>
					<polygon fill="#FFFFFF" points="24.353,77.713 17.07,77.713 24.353,71.884 					"/>
                    <path d="M24.604,71.366v6.596h-8.245L24.604,71.366 M24.104,72.406l-6.319,5.056h6.319V72.406L24.104,72.406z"/>
				</g>
                    <line fill="none" stroke="#000000" stroke-linecap="round" x1="21.306" y1="74.664" x2="21.306"
                          y2="76.45"/>
			</g>
		</g>
            <polygon fill="#FFFFFF" stroke="#000000" stroke-width="0.5"
                     points="112.295,-89.604 119.045,-83.979 112.295,-83.979 		"/>
            <polygon fill="#FFFFFF" stroke="#000000" stroke-width="0.5"
                     points="112.045,-58.229 118.795,-52.604 112.045,-52.604 		"/>
            <polygon fill="#FFFFFF" stroke="#000000" stroke-width="0.5"
                     points="112.295,-25.854 119.045,-20.229 112.295,-20.229 		"/>
            <polygon fill="#FFFFFF" stroke="#000000" stroke-width="0.5"
                     points="112.279,6.543 119.029,12.168 112.279,12.168 		"/>
            <polygon fill="#FFFFFF" stroke="#000000" stroke-width="0.5"
                     points="112.029,37.918 118.779,43.543 112.029,43.543 		"/>
            <polygon fill="#FFFFFF" stroke="#000000" stroke-width="0.5"
                     points="112.279,70.293 119.029,75.918 112.279,75.918 		"/>
            <polygon fill="#FFFFFF" stroke="#000000" stroke-width="0.25"
                     points="70.563,-74.656 69.125,-77.531 71.281,-77.219 		"/>
            <polygon fill="#FFFFFF" stroke="#000000" stroke-width="0.25"
                     points="72.156,-74.344 70.719,-77.219 73,-77.188 		"/>
            <polygon fill="#FFFFFF" stroke="#000000" stroke-width="0.25"
                     points="73.438,-74.188 72,-77.063 74.344,-77.125 		"/>
            <polygon fill="#FFFFFF" stroke="#000000" stroke-width="0.25"
                     points="72.688,-74.063 71.25,-71.188 73.531,-71.219 		"/>
            <polygon fill="#FFFFFF" stroke="#000000" stroke-width="0.25"
                     points="73.969,-74.219 72.531,-71.344 74.875,-71.281 		"/>
            <polygon fill="#FFFFFF" stroke="#000000" stroke-width="0.25"
                     points="70.813,-43.281 69.375,-46.156 71.531,-45.844 		"/>
            <polygon fill="#FFFFFF" stroke="#000000" stroke-width="0.25"
                     points="72.406,-42.969 70.969,-45.844 73.25,-45.813 		"/>
            <polygon fill="#FFFFFF" stroke="#000000" stroke-width="0.25"
                     points="73.688,-42.813 72.25,-45.688 74.594,-45.75 		"/>
            <polygon fill="#FFFFFF" stroke="#000000" stroke-width="0.25"
                     points="72.938,-42.688 71.5,-39.813 73.781,-39.844 		"/>
            <polygon fill="#FFFFFF" stroke="#000000" stroke-width="0.25"
                     points="74.219,-42.844 72.781,-39.969 75.125,-39.906 		"/>
            <polygon fill="#FFFFFF" stroke="#000000" stroke-width="0.25"
                     points="70.563,-10.906 69.125,-13.781 71.281,-13.469 		"/>
            <polygon fill="#FFFFFF" stroke="#000000" stroke-width="0.25"
                     points="72.156,-10.594 70.719,-13.469 73,-13.438 		"/>
            <polygon fill="#FFFFFF" stroke="#000000" stroke-width="0.25"
                     points="73.438,-10.438 72,-13.313 74.344,-13.375 		"/>
            <polygon fill="#FFFFFF" stroke="#000000" stroke-width="0.25"
                     points="72.688,-10.313 71.25,-7.438 73.531,-7.469 		"/>
            <polygon fill="#FFFFFF" stroke="#000000" stroke-width="0.25"
                     points="73.969,-10.469 72.531,-7.594 74.875,-7.531 		"/>
            <polygon fill="#FFFFFF" stroke="#000000" stroke-width="0.25"
                     points="69.563,19.344 68.125,16.469 70.281,16.781 		"/>
            <polygon fill="#FFFFFF" stroke="#000000" stroke-width="0.25"
                     points="71.156,19.656 69.719,16.781 72,16.813 		"/>
            <polygon fill="#FFFFFF" stroke="#000000" stroke-width="0.25"
                     points="72.438,19.813 71,16.938 73.344,16.875 		"/>
            <polygon fill="#FFFFFF" stroke="#000000" stroke-width="0.25"
                     points="72.688,21.938 71.25,24.813 73.531,24.781 		"/>
            <polygon fill="#FFFFFF" stroke="#000000" stroke-width="0.25"
                     points="73.969,21.781 72.531,24.656 74.875,24.719 		"/>
            <polygon fill="#FFFFFF" stroke="#000000" stroke-width="0.25"
                     points="69.813,51.91 67.354,49.84 69.456,49.271 		"/>
            <polygon fill="#FFFFFF" stroke="#000000" stroke-width="0.25"
                     points="71.398,51.564 68.939,49.495 71.047,48.62 		"/>
            <polygon fill="#FFFFFF" stroke="#000000" stroke-width="0.25"
                     points="72.639,51.201 70.18,49.131 72.307,48.145 		"/>
            <polygon fill="#FFFFFF" stroke="#000000" stroke-width="0.25"
                     points="72.938,53.313 71.5,56.188 73.781,56.156 		"/>
            <polygon fill="#FFFFFF" stroke="#000000" stroke-width="0.25"
                     points="74.219,53.156 72.781,56.031 75.125,56.094 		"/>
            <polygon fill="#FFFFFF" stroke="#000000" stroke-width="0.25"
                     points="70.563,86.094 69.125,83.219 71.281,83.531 		"/>
            <polygon fill="#FFFFFF" stroke="#000000" stroke-width="0.25"
                     points="72.156,86.406 70.719,83.531 73,83.563 		"/>
            <polygon fill="#FFFFFF" stroke="#000000" stroke-width="0.25"
                     points="73.438,86.563 72,83.688 74.344,83.625 		"/>
            <polygon fill="#FFFFFF" stroke="#000000" stroke-width="0.25"
                     points="72.688,85.688 71.25,88.563 73.531,88.531 		"/>
            <polygon fill="#FFFFFF" stroke="#000000" stroke-width="0.25"
                     points="73.969,85.531 72.531,88.406 74.875,88.469 		"/>
            <polygon fill="#FFFFFF" stroke="#000000" stroke-width="0.25"
                     points="119.691,-74.427 121.129,-77.302 118.973,-76.989 		"/>
            <polygon fill="#FFFFFF" stroke="#000000" stroke-width="0.25"
                     points="118.098,-74.114 119.535,-76.989 117.254,-76.958 		"/>
            <polygon fill="#FFFFFF" stroke="#000000" stroke-width="0.25"
                     points="116.816,-73.958 118.254,-76.833 115.91,-76.896 		"/>
            <polygon fill="#FFFFFF" stroke="#000000" stroke-width="0.25"
                     points="117.566,-73.833 119.004,-70.958 116.723,-70.989 		"/>
            <polygon fill="#FFFFFF" stroke="#000000" stroke-width="0.25"
                     points="116.285,-73.989 117.723,-71.114 115.379,-71.052 		"/>
            <polygon fill="#FFFFFF" stroke="#000000" stroke-width="0.25"
                     points="119.441,-43.052 120.879,-45.927 118.723,-45.614 		"/>
            <polygon fill="#FFFFFF" stroke="#000000" stroke-width="0.25"
                     points="117.848,-42.739 119.285,-45.614 117.004,-45.583 		"/>
            <polygon fill="#FFFFFF" stroke="#000000" stroke-width="0.25"
                     points="116.566,-42.583 118.004,-45.458 115.66,-45.521 		"/>
            <polygon fill="#FFFFFF" stroke="#000000" stroke-width="0.25"
                     points="117.316,-42.458 118.754,-39.583 116.473,-39.614 		"/>
            <polygon fill="#FFFFFF" stroke="#000000" stroke-width="0.25"
                     points="116.035,-42.614 117.473,-39.739 115.129,-39.677 		"/>
            <polygon fill="#FFFFFF" stroke="#000000" stroke-width="0.25"
                     points="119.691,-10.677 121.129,-13.552 118.973,-13.239 		"/>
            <polygon fill="#FFFFFF" stroke="#000000" stroke-width="0.25"
                     points="118.098,-10.364 119.535,-13.239 117.254,-13.208 		"/>
            <polygon fill="#FFFFFF" stroke="#000000" stroke-width="0.25"
                     points="116.816,-10.208 118.254,-13.083 115.91,-13.146 		"/>
            <polygon fill="#FFFFFF" stroke="#000000" stroke-width="0.25"
                     points="117.566,-10.083 119.004,-7.208 116.723,-7.239 		"/>
            <polygon fill="#FFFFFF" stroke="#000000" stroke-width="0.25"
                     points="116.285,-10.239 117.723,-7.364 115.379,-7.302 		"/>
            <polygon fill="#FFFFFF" stroke="#000000" stroke-width="0.25"
                     points="120.676,19.721 122.113,16.846 119.957,17.158 		"/>
            <polygon fill="#FFFFFF" stroke="#000000" stroke-width="0.25"
                     points="119.082,20.033 120.52,17.158 118.238,17.189 		"/>
            <polygon fill="#FFFFFF" stroke="#000000" stroke-width="0.25"
                     points="117.801,20.189 119.238,17.314 116.895,17.252 		"/>
            <polygon fill="#FFFFFF" stroke="#000000" stroke-width="0.25"
                     points="117.551,22.314 118.988,25.189 116.707,25.158 		"/>
            <polygon fill="#FFFFFF" stroke="#000000" stroke-width="0.25"
                     points="116.27,22.158 117.707,25.033 115.363,25.096 		"/>
            <polygon fill="#FFFFFF" stroke="#000000" stroke-width="0.25"
                     points="120.428,52.287 122.887,50.217 120.782,49.648 		"/>
            <polygon fill="#FFFFFF" stroke="#000000" stroke-width="0.25"
                     points="118.839,51.941 121.298,49.872 119.191,48.997 		"/>
            <polygon fill="#FFFFFF" stroke="#000000" stroke-width="0.25"
                     points="117.602,51.578 120.061,49.508 117.934,48.521 		"/>
            <polygon fill="#FFFFFF" stroke="#000000" stroke-width="0.25"
                     points="117.301,53.689 118.738,56.564 116.457,56.533 		"/>
            <polygon fill="#FFFFFF" stroke="#000000" stroke-width="0.25"
                     points="116.02,53.533 117.457,56.408 115.113,56.471 		"/>
            <polygon fill="#FFFFFF" stroke="#000000" stroke-width="0.25"
                     points="119.676,86.471 121.113,83.596 118.957,83.908 		"/>
            <polygon fill="#FFFFFF" stroke="#000000" stroke-width="0.25"
                     points="118.082,86.783 119.52,83.908 117.238,83.939 		"/>
            <polygon fill="#FFFFFF" stroke="#000000" stroke-width="0.25"
                     points="116.801,86.939 118.238,84.064 115.895,84.002 		"/>
            <polygon fill="#FFFFFF" stroke="#000000" stroke-width="0.25"
                     points="117.551,86.064 118.988,88.939 116.707,88.908 		"/>
            <polygon fill="#FFFFFF" stroke="#000000" stroke-width="0.25"
                     points="116.27,85.908 117.707,88.783 115.363,88.846 		"/>
            <line fill="none" stroke="#000000" stroke-linecap="round" x1="115.236" y1="9.461" x2="115.195" y2="10.918"/>
            <line fill="none" stroke="#000000" stroke-linecap="round" x1="114.986" y1="40.836" x2="114.945"
                  y2="42.293"/>
            <line fill="none" stroke="#000000" stroke-linecap="round" x1="115.236" y1="73.211" x2="115.195"
                  y2="74.668"/>
            <line fill="none" stroke="#000000" stroke-linecap="round" x1="115.253" y1="-86.687" x2="115.212"
                  y2="-85.229"/>
            <line fill="none" stroke="#000000" stroke-linecap="round" x1="115.003" y1="-55.312" x2="114.962"
                  y2="-53.854"/>
            <line fill="none" stroke="#000000" stroke-linecap="round" x1="115.253" y1="-22.937" x2="115.212"
                  y2="-21.479"/>
            <line fill="none" stroke="#000000" stroke-linecap="round" x1="75.001" y1="-86.917" x2="75.042"
                  y2="-85.458"/>
            <line fill="none" stroke="#000000" stroke-linecap="round" x1="75.251" y1="-55.542" x2="75.292"
                  y2="-54.083"/>
            <line fill="none" stroke="#000000" stroke-linecap="round" x1="75.001" y1="-23.166" x2="75.042"
                  y2="-21.709"/>
            <line fill="none" stroke="#000000" stroke-linecap="round" x1="75.001" y1="9.084" x2="75.042" y2="10.541"/>
            <line fill="none" stroke="#000000" stroke-linecap="round" x1="75.251" y1="40.459" x2="75.292" y2="41.916"/>
            <line fill="none" stroke="#000000" stroke-linecap="round" x1="75.001" y1="72.834" x2="75.042" y2="74.291"/>
	</g>
</g>
</svg>
